<svg xmlns="http://www.w3.org/2000/svg" xmlns:xlink="http://www.w3.org/1999/xlink" width="500" height="500" zoomAndPan="magnify" viewBox="0 0 375 374.999991" height="500" preserveAspectRatio="xMidYMid meet" version="1.0"><defs><clipPath id="eb3bd9493d"><path d="M 166.734375 206 L 180.035156 206 L 180.035156 213.296875 L 166.734375 213.296875 Z M 166.734375 206 " clip-rule="nonzero"/></clipPath><clipPath id="17eb6aff05"><path d="M 172 89.546875 L 175 89.546875 L 175 98 L 172 98 Z M 172 89.546875 " clip-rule="nonzero"/></clipPath><clipPath id="de944ff317"><path d="M 230.46875 157.007812 L 241.433594 157.007812 L 241.433594 158.941406 L 230.46875 158.941406 Z M 230.46875 157.007812 " clip-rule="nonzero"/></clipPath><clipPath id="0a4589e528"><path d="M 104.9375 156 L 116 156 L 116 159 L 104.9375 159 Z M 104.9375 156 " clip-rule="nonzero"/></clipPath></defs><path fill="#231f20" d="M 162.339844 127.007812 C 157.375 127.007812 153.210938 130.886719 152.859375 135.832031 L 152.824219 136.351562 L 152.355469 136.578125 C 147.472656 138.957031 144.4375 143.800781 144.4375 149.222656 C 144.4375 152.113281 145.3125 154.894531 146.96875 157.261719 L 147.183594 157.570312 L 147.113281 157.941406 C 147.089844 158.070312 147.070312 158.199219 147.054688 158.328125 L 147.019531 158.585938 L 146.855469 158.785156 C 144.414062 161.75 143.070312 165.503906 143.070312 169.351562 C 143.070312 177.550781 149.175781 184.628906 157.277344 185.824219 L 157.632812 185.875 L 157.855469 186.15625 C 160.046875 188.9375 163.488281 190.753906 167.542969 191.265625 C 168.183594 191.347656 168.804688 191.15625 169.292969 190.726562 C 169.777344 190.296875 170.058594 189.683594 170.058594 189.035156 L 170.058594 127.132812 C 170.058594 125.675781 168.996094 125.019531 168.089844 124.902344 C 167.191406 124.785156 166.015625 125.144531 165.644531 126.535156 L 165.40625 127.472656 L 164.542969 127.269531 C 163.820312 127.097656 163.078125 127.007812 162.339844 127.007812 Z M 167.820312 193.085938 C 167.652344 193.085938 167.484375 193.074219 167.316406 193.054688 C 162.921875 192.5 159.15625 190.550781 156.664062 187.550781 C 152.460938 186.847656 148.613281 184.695312 145.800781 181.464844 C 142.875 178.109375 141.265625 173.808594 141.265625 169.351562 C 141.265625 165.207031 142.671875 161.164062 145.234375 157.917969 C 143.53125 155.332031 142.636719 152.335938 142.636719 149.222656 C 142.636719 146.191406 143.492188 143.246094 145.117188 140.703125 C 146.609375 138.371094 148.671875 136.476562 151.109375 135.191406 C 151.769531 129.550781 156.605469 125.207031 162.339844 125.207031 C 162.949219 125.207031 163.558594 125.257812 164.160156 125.355469 C 164.894531 123.78125 166.515625 122.878906 168.324219 123.113281 C 170.027344 123.335938 171.859375 124.6875 171.859375 127.132812 L 171.859375 189.035156 C 171.859375 190.199219 171.359375 191.308594 170.484375 192.078125 C 169.746094 192.730469 168.792969 193.085938 167.820312 193.085938 " fill-opacity="1" fill-rule="nonzero"/><path fill="#231f20" d="M 158.101562 187.585938 C 157.582031 187.585938 157.054688 187.550781 156.535156 187.476562 L 156.785156 185.691406 C 158.691406 185.957031 160.667969 185.640625 162.347656 184.796875 L 163.15625 186.40625 C 161.613281 187.179688 159.863281 187.585938 158.101562 187.585938 " fill-opacity="1" fill-rule="nonzero"/><path fill="#231f20" d="M 163.542969 187.082031 C 164.34375 186.601562 164.605469 185.5625 164.125 184.761719 C 163.644531 183.957031 162.605469 183.695312 161.800781 184.175781 C 160.996094 184.65625 160.738281 185.699219 161.21875 186.5 C 161.699219 187.304688 162.738281 187.566406 163.542969 187.082031 " fill-opacity="1" fill-rule="nonzero"/><path fill="#231f20" d="M 153.859375 165.078125 C 150.265625 163.566406 147.285156 161.085938 145.242188 157.90625 L 146.757812 156.933594 C 148.605469 159.804688 151.304688 162.046875 154.558594 163.417969 L 153.859375 165.078125 " fill-opacity="1" fill-rule="nonzero"/><path fill="#231f20" d="M 153.535156 165.800781 C 154.410156 166.128906 155.390625 165.683594 155.71875 164.808594 C 156.046875 163.933594 155.605469 162.957031 154.726562 162.628906 C 153.851562 162.300781 152.875 162.742188 152.546875 163.617188 C 152.214844 164.492188 152.660156 165.46875 153.535156 165.800781 " fill-opacity="1" fill-rule="nonzero"/><path fill="#231f20" d="M 149.542969 138.382812 L 148.464844 136.941406 C 151.496094 134.675781 155.15625 133.398438 159.050781 133.238281 L 159.125 135.039062 C 155.59375 135.183594 152.28125 136.339844 149.542969 138.382812 " fill-opacity="1" fill-rule="nonzero"/><path fill="#231f20" d="M 159.003906 135.839844 C 159.941406 135.839844 160.699219 135.078125 160.699219 134.144531 C 160.695312 133.207031 159.9375 132.449219 159 132.453125 C 158.0625 132.453125 157.304688 133.210938 157.308594 134.148438 C 157.308594 135.085938 158.070312 135.839844 159.003906 135.839844 " fill-opacity="1" fill-rule="nonzero"/><path fill="#231f20" d="M 161.722656 145.488281 L 160.671875 144.019531 C 163.207031 142.203125 165.050781 139.441406 165.722656 136.441406 C 166.515625 132.921875 165.71875 129.082031 163.59375 126.164062 L 165.050781 125.105469 C 167.476562 128.433594 168.386719 132.820312 167.484375 136.835938 C 166.714844 140.261719 164.613281 143.414062 161.722656 145.488281 " fill-opacity="1" fill-rule="nonzero"/><path fill="#231f20" d="M 160.351562 143.269531 C 159.5625 143.773438 159.332031 144.820312 159.832031 145.609375 C 160.335938 146.398438 161.382812 146.632812 162.171875 146.128906 C 162.960938 145.628906 163.195312 144.582031 162.691406 143.792969 C 162.191406 143 161.140625 142.769531 160.351562 143.269531 " fill-opacity="1" fill-rule="nonzero"/><path fill="#231f20" d="M 170.707031 174.527344 C 168.101562 173.777344 165.753906 171.660156 163.925781 168.402344 C 163.292969 167.277344 162.746094 166.097656 162.21875 164.960938 C 161.523438 163.460938 160.867188 162.042969 160.023438 160.714844 C 158.480469 158.296875 156.339844 156.269531 153.820312 154.851562 L 154.707031 153.28125 C 157.480469 154.84375 159.84375 157.082031 161.542969 159.746094 C 162.453125 161.179688 163.164062 162.714844 163.855469 164.203125 C 164.367188 165.3125 164.898438 166.457031 165.496094 167.519531 C 166.609375 169.496094 168.5 172.015625 171.207031 172.796875 L 170.707031 174.527344 " fill-opacity="1" fill-rule="nonzero"/><path fill="#231f20" d="M 153.554688 155.621094 C 152.722656 155.191406 152.398438 154.167969 152.828125 153.335938 C 153.257812 152.507812 154.28125 152.179688 155.113281 152.609375 C 155.941406 153.039062 156.269531 154.0625 155.839844 154.894531 C 155.410156 155.722656 154.386719 156.050781 153.554688 155.621094 " fill-opacity="1" fill-rule="nonzero"/><path fill="#231f20" d="M 179.054688 124.882812 C 178.945312 124.882812 178.835938 124.890625 178.734375 124.902344 C 177.828125 125.019531 176.765625 125.675781 176.765625 127.132812 L 176.765625 189.035156 C 176.765625 189.683594 177.042969 190.296875 177.53125 190.726562 C 178.015625 191.15625 178.640625 191.347656 179.28125 191.265625 C 183.335938 190.753906 186.777344 188.9375 188.96875 186.15625 L 189.191406 185.875 L 189.546875 185.824219 C 197.644531 184.628906 203.753906 177.550781 203.753906 169.351562 C 203.753906 165.503906 202.410156 161.75 199.96875 158.785156 L 199.804688 158.585938 L 199.769531 158.328125 C 199.753906 158.199219 199.734375 158.070312 199.707031 157.941406 L 199.640625 157.570312 L 199.855469 157.261719 C 201.511719 154.894531 202.386719 152.113281 202.386719 149.222656 C 202.386719 143.800781 199.351562 138.957031 194.46875 136.578125 L 194 136.351562 L 193.960938 135.832031 C 193.613281 130.886719 189.449219 127.007812 184.480469 127.007812 C 183.746094 127.007812 183.003906 127.097656 182.28125 127.269531 L 181.417969 127.472656 L 181.179688 126.535156 C 180.851562 125.304688 179.890625 124.882812 179.054688 124.882812 Z M 179.003906 193.085938 C 178.027344 193.085938 177.078125 192.730469 176.339844 192.078125 C 175.464844 191.308594 174.964844 190.199219 174.964844 189.035156 L 174.964844 127.132812 C 174.964844 124.6875 176.796875 123.335938 178.5 123.113281 C 180.308594 122.878906 181.925781 123.78125 182.660156 125.355469 C 183.265625 125.257812 183.875 125.207031 184.480469 125.207031 C 190.21875 125.207031 195.054688 129.550781 195.710938 135.191406 C 198.152344 136.476562 200.214844 138.371094 201.703125 140.703125 C 203.328125 143.246094 204.1875 146.191406 204.1875 149.222656 C 204.1875 152.335938 203.289062 155.332031 201.585938 157.917969 C 204.152344 161.164062 205.558594 165.207031 205.558594 169.351562 C 205.558594 173.808594 203.949219 178.109375 201.023438 181.464844 C 198.207031 184.695312 194.363281 186.847656 190.160156 187.550781 C 187.667969 190.550781 183.902344 192.5 179.507812 193.054688 C 179.339844 193.074219 179.171875 193.085938 179.003906 193.085938 " fill-opacity="1" fill-rule="nonzero"/><path fill="#231f20" d="M 188.71875 187.585938 C 186.960938 187.585938 185.210938 187.179688 183.667969 186.40625 L 184.476562 184.796875 C 186.15625 185.640625 188.132812 185.957031 190.039062 185.691406 L 190.285156 187.476562 C 189.765625 187.550781 189.242188 187.585938 188.71875 187.585938 " fill-opacity="1" fill-rule="nonzero"/><path fill="#231f20" d="M 185.023438 184.175781 C 184.21875 183.695312 183.179688 183.957031 182.699219 184.761719 C 182.21875 185.5625 182.476562 186.601562 183.28125 187.082031 C 184.085938 187.566406 185.125 187.304688 185.605469 186.5 C 186.085938 185.699219 185.824219 184.65625 185.023438 184.175781 " fill-opacity="1" fill-rule="nonzero"/><path fill="#231f20" d="M 192.964844 165.078125 L 192.265625 163.417969 C 195.519531 162.046875 198.21875 159.804688 200.066406 156.933594 L 201.582031 157.90625 C 199.535156 161.085938 196.554688 163.566406 192.964844 165.078125 " fill-opacity="1" fill-rule="nonzero"/><path fill="#231f20" d="M 192.09375 162.628906 C 191.21875 162.957031 190.777344 163.933594 191.105469 164.808594 C 191.433594 165.683594 192.414062 166.128906 193.289062 165.800781 C 194.164062 165.46875 194.609375 164.492188 194.277344 163.617188 C 193.949219 162.742188 192.972656 162.300781 192.09375 162.628906 " fill-opacity="1" fill-rule="nonzero"/><path fill="#231f20" d="M 197.277344 138.382812 C 194.542969 136.339844 191.230469 135.183594 187.699219 135.039062 L 187.773438 133.238281 C 191.667969 133.398438 195.328125 134.675781 198.359375 136.941406 L 197.277344 138.382812 " fill-opacity="1" fill-rule="nonzero"/><path fill="#231f20" d="M 187.824219 132.453125 C 186.886719 132.449219 186.128906 133.207031 186.125 134.144531 C 186.125 135.078125 186.882812 135.839844 187.820312 135.839844 C 188.753906 135.839844 189.515625 135.085938 189.515625 134.148438 C 189.515625 133.210938 188.757812 132.453125 187.824219 132.453125 " fill-opacity="1" fill-rule="nonzero"/><path fill="#231f20" d="M 185.101562 145.488281 C 182.210938 143.414062 180.109375 140.261719 179.339844 136.835938 C 178.4375 132.820312 179.347656 128.433594 181.773438 125.105469 L 183.230469 126.164062 C 181.105469 129.082031 180.308594 132.921875 181.097656 136.441406 C 181.773438 139.441406 183.617188 142.203125 186.152344 144.019531 L 185.101562 145.488281 " fill-opacity="1" fill-rule="nonzero"/><path fill="#231f20" d="M 184.652344 146.128906 C 185.441406 146.632812 186.488281 146.398438 186.992188 145.609375 C 187.492188 144.820312 187.261719 143.773438 186.472656 143.269531 C 185.679688 142.769531 184.632812 143 184.132812 143.792969 C 183.628906 144.582031 183.863281 145.628906 184.652344 146.128906 " fill-opacity="1" fill-rule="nonzero"/><path fill="#231f20" d="M 176.113281 174.527344 L 175.617188 172.796875 C 178.324219 172.015625 180.214844 169.496094 181.328125 167.519531 C 181.925781 166.457031 182.457031 165.3125 182.96875 164.203125 C 183.65625 162.714844 184.371094 161.179688 185.28125 159.746094 C 186.980469 157.082031 189.34375 154.84375 192.117188 153.28125 L 193.003906 154.851562 C 190.484375 156.269531 188.339844 158.296875 186.800781 160.714844 C 185.957031 162.042969 185.300781 163.460938 184.605469 164.960938 C 184.078125 166.101562 183.53125 167.277344 182.898438 168.402344 C 181.066406 171.660156 178.722656 173.777344 176.113281 174.527344 " fill-opacity="1" fill-rule="nonzero"/><path fill="#231f20" d="M 191.710938 152.609375 C 192.542969 152.179688 193.566406 152.507812 193.996094 153.335938 C 194.425781 154.167969 194.101562 155.191406 193.269531 155.621094 C 192.4375 156.050781 191.414062 155.722656 190.984375 154.894531 C 190.554688 154.0625 190.878906 153.039062 191.710938 152.609375 " fill-opacity="1" fill-rule="nonzero"/><path fill="#231f20" d="M 181.660156 196.414062 L 165.160156 196.414062 C 164.664062 196.414062 164.261719 196.011719 164.261719 195.515625 C 164.261719 195.015625 164.664062 194.613281 165.160156 194.613281 L 181.660156 194.613281 C 182.160156 194.613281 182.5625 195.015625 182.5625 195.515625 C 182.5625 196.011719 182.160156 196.414062 181.660156 196.414062 " fill-opacity="1" fill-rule="nonzero"/><path fill="#231f20" d="M 181.660156 199.96875 L 165.160156 199.96875 C 164.664062 199.96875 164.261719 199.5625 164.261719 199.066406 C 164.261719 198.570312 164.664062 198.164062 165.160156 198.164062 L 181.660156 198.164062 C 182.160156 198.164062 182.5625 198.570312 182.5625 199.066406 C 182.5625 199.5625 182.160156 199.96875 181.660156 199.96875 " fill-opacity="1" fill-rule="nonzero"/><path fill="#231f20" d="M 181.660156 203.519531 L 165.160156 203.519531 C 164.664062 203.519531 164.261719 203.117188 164.261719 202.617188 C 164.261719 202.121094 164.664062 201.71875 165.160156 201.71875 L 181.660156 201.71875 C 182.160156 201.71875 182.5625 202.121094 182.5625 202.617188 C 182.5625 203.117188 182.160156 203.519531 181.660156 203.519531 " fill-opacity="1" fill-rule="nonzero"/><path fill="#231f20" d="M 181.660156 207.070312 L 165.160156 207.070312 C 164.664062 207.070312 164.261719 206.667969 164.261719 206.167969 C 164.261719 205.671875 164.664062 205.269531 165.160156 205.269531 L 181.660156 205.269531 C 182.160156 205.269531 182.5625 205.671875 182.5625 206.167969 C 182.5625 206.667969 182.160156 207.070312 181.660156 207.070312 " fill-opacity="1" fill-rule="nonzero"/><g clip-path="url(#eb3bd9493d)"><path fill="#231f20" d="M 173.410156 213.296875 C 169.777344 213.296875 166.820312 210.339844 166.820312 206.707031 L 166.820312 206.589844 L 168.625 206.621094 L 168.625 206.707031 C 168.625 209.347656 170.773438 211.492188 173.410156 211.492188 C 176.050781 211.492188 178.199219 209.347656 178.199219 206.707031 C 178.199219 206.554688 178.191406 206.402344 178.179688 206.253906 L 179.972656 206.085938 C 179.992188 206.292969 180.003906 206.5 180.003906 206.707031 C 180.003906 210.339844 177.046875 213.296875 173.410156 213.296875 " fill-opacity="1" fill-rule="nonzero"/></g><path fill="#231f20" d="M 173.410156 114.335938 C 172.914062 114.335938 172.511719 113.933594 172.511719 113.4375 L 172.511719 107.203125 C 172.511719 106.703125 172.914062 106.300781 173.410156 106.300781 C 173.910156 106.300781 174.3125 106.703125 174.3125 107.203125 L 174.3125 113.4375 C 174.3125 113.933594 173.910156 114.335938 173.410156 114.335938 " fill-opacity="1" fill-rule="nonzero"/><g clip-path="url(#17eb6aff05)"><path fill="#231f20" d="M 173.410156 97.128906 C 172.914062 97.128906 172.511719 96.726562 172.511719 96.230469 L 172.511719 90.457031 C 172.511719 89.960938 172.914062 89.554688 173.410156 89.554688 C 173.910156 89.554688 174.3125 89.960938 174.3125 90.457031 L 174.3125 96.230469 C 174.3125 96.726562 173.910156 97.128906 173.410156 97.128906 " fill-opacity="1" fill-rule="nonzero"/></g><path fill="#231f20" d="M 204.710938 127.484375 C 204.480469 127.484375 204.25 127.398438 204.074219 127.21875 C 203.722656 126.867188 203.722656 126.296875 204.074219 125.945312 L 212.402344 117.621094 C 212.753906 117.269531 213.324219 117.269531 213.675781 117.621094 C 214.027344 117.972656 214.027344 118.542969 213.675781 118.894531 L 205.347656 127.21875 C 205.171875 127.398438 204.941406 127.484375 204.710938 127.484375 " fill-opacity="1" fill-rule="nonzero"/><path fill="#231f20" d="M 215.851562 116.347656 C 215.621094 116.347656 215.390625 116.261719 215.210938 116.085938 C 214.859375 115.734375 214.859375 115.164062 215.210938 114.8125 L 220.328125 109.695312 C 220.683594 109.34375 221.253906 109.34375 221.605469 109.695312 C 221.957031 110.046875 221.957031 110.621094 221.605469 110.972656 L 216.488281 116.085938 C 216.3125 116.261719 216.082031 116.347656 215.851562 116.347656 " fill-opacity="1" fill-rule="nonzero"/><path fill="#231f20" d="M 225.265625 158.902344 L 217.542969 158.902344 C 217.042969 158.902344 216.640625 158.5 216.640625 158 C 216.640625 157.503906 217.042969 157.101562 217.542969 157.101562 L 225.265625 157.101562 C 225.761719 157.101562 226.167969 157.503906 226.167969 158 C 226.167969 158.5 225.761719 158.902344 225.265625 158.902344 " fill-opacity="1" fill-rule="nonzero"/><g clip-path="url(#de944ff317)"><path fill="#231f20" d="M 240.53125 158.902344 L 231.425781 158.902344 C 230.925781 158.902344 230.523438 158.5 230.523438 158 C 230.523438 157.503906 230.925781 157.101562 231.425781 157.101562 L 240.53125 157.101562 C 241.03125 157.101562 241.433594 157.503906 241.433594 158 C 241.433594 158.5 241.03125 158.902344 240.53125 158.902344 " fill-opacity="1" fill-rule="nonzero"/></g><path fill="#231f20" d="M 208.566406 194.363281 C 208.335938 194.363281 208.105469 194.277344 207.929688 194.101562 L 203.753906 189.925781 C 203.398438 189.574219 203.398438 189 203.753906 188.648438 C 204.105469 188.296875 204.675781 188.296875 205.027344 188.648438 L 209.207031 192.828125 C 209.558594 193.179688 209.558594 193.75 209.207031 194.101562 C 209.03125 194.277344 208.800781 194.363281 208.566406 194.363281 " fill-opacity="1" fill-rule="nonzero"/><path fill="#231f20" d="M 220.007812 206.171875 L 211.542969 197.714844 C 211.191406 197.359375 211.191406 196.789062 211.542969 196.4375 C 211.898438 196.085938 212.46875 196.085938 212.820312 196.4375 L 221.285156 204.898438 L 220.007812 206.171875 " fill-opacity="1" fill-rule="nonzero"/><path fill="#231f20" d="M 139.636719 191.890625 C 139.40625 191.890625 139.175781 191.800781 139 191.625 C 138.644531 191.273438 138.644531 190.703125 139 190.351562 L 141.023438 188.328125 C 141.375 187.976562 141.945312 187.976562 142.296875 188.328125 C 142.648438 188.679688 142.648438 189.25 142.296875 189.601562 L 140.273438 191.625 C 140.097656 191.800781 139.867188 191.890625 139.636719 191.890625 " fill-opacity="1" fill-rule="nonzero"/><path fill="#231f20" d="M 125.402344 206.117188 C 125.171875 206.117188 124.941406 206.027344 124.765625 205.851562 C 124.414062 205.5 124.414062 204.929688 124.765625 204.578125 L 132.171875 197.175781 C 132.523438 196.824219 133.09375 196.824219 133.445312 197.175781 C 133.800781 197.527344 133.800781 198.097656 133.445312 198.449219 L 126.039062 205.851562 C 125.863281 206.027344 125.632812 206.117188 125.402344 206.117188 " fill-opacity="1" fill-rule="nonzero"/><path fill="#231f20" d="M 128.828125 158.449219 L 120.59375 158.449219 C 120.097656 158.449219 119.695312 158.046875 119.695312 157.546875 C 119.695312 157.050781 120.097656 156.648438 120.59375 156.648438 L 128.828125 156.648438 C 129.324219 156.648438 129.730469 157.050781 129.730469 157.546875 C 129.730469 158.046875 129.324219 158.449219 128.828125 158.449219 " fill-opacity="1" fill-rule="nonzero"/><g clip-path="url(#0a4589e528)"><path fill="#231f20" d="M 114.707031 158.449219 L 105.839844 158.449219 C 105.339844 158.449219 104.9375 158.046875 104.9375 157.546875 C 104.9375 157.050781 105.339844 156.648438 105.839844 156.648438 L 114.707031 156.648438 C 115.203125 156.648438 115.605469 157.050781 115.605469 157.546875 C 115.605469 158.046875 115.203125 158.449219 114.707031 158.449219 " fill-opacity="1" fill-rule="nonzero"/></g><path fill="#231f20" d="M 141.980469 127.164062 C 141.75 127.164062 141.519531 127.074219 141.34375 126.898438 L 136.777344 122.335938 C 136.421875 121.984375 136.421875 121.414062 136.777344 121.0625 C 137.128906 120.707031 137.699219 120.707031 138.050781 121.0625 L 142.617188 125.625 C 142.96875 125.976562 142.96875 126.546875 142.617188 126.898438 C 142.441406 127.074219 142.210938 127.164062 141.980469 127.164062 " fill-opacity="1" fill-rule="nonzero"/><path fill="#231f20" d="M 132.460938 117.648438 C 132.230469 117.648438 132 117.5625 131.824219 117.386719 L 125.085938 110.652344 C 124.734375 110.296875 124.734375 109.726562 125.085938 109.375 C 125.4375 109.023438 126.007812 109.023438 126.359375 109.375 L 133.097656 116.109375 C 133.449219 116.460938 133.449219 117.03125 133.097656 117.386719 C 132.921875 117.5625 132.691406 117.648438 132.460938 117.648438 " fill-opacity="1" fill-rule="nonzero"/><path fill="#231f20" d="M 158.8125 119.359375 C 158.515625 119.359375 158.222656 119.210938 158.050781 118.9375 L 155.429688 114.78125 C 155.164062 114.359375 155.292969 113.804688 155.714844 113.539062 C 156.136719 113.273438 156.691406 113.398438 156.957031 113.820312 L 159.574219 117.976562 C 159.839844 118.398438 159.714844 118.957031 159.292969 119.222656 C 159.144531 119.316406 158.976562 119.359375 158.8125 119.359375 " fill-opacity="1" fill-rule="nonzero"/><path fill="#231f20" d="M 153.195312 110.4375 C 152.894531 110.4375 152.601562 110.289062 152.429688 110.015625 L 148.757812 104.183594 C 148.492188 103.761719 148.617188 103.207031 149.039062 102.941406 C 149.460938 102.675781 150.019531 102.800781 150.28125 103.222656 L 153.957031 109.058594 C 154.222656 109.476562 154.097656 110.035156 153.675781 110.300781 C 153.523438 110.394531 153.359375 110.4375 153.195312 110.4375 " fill-opacity="1" fill-rule="nonzero"/><path fill="#231f20" d="M 188.421875 119.359375 C 188.257812 119.359375 188.089844 119.316406 187.941406 119.222656 C 187.519531 118.957031 187.394531 118.398438 187.660156 117.976562 L 190.632812 113.253906 C 190.898438 112.832031 191.457031 112.707031 191.878906 112.972656 C 192.296875 113.238281 192.425781 113.792969 192.160156 114.214844 L 189.183594 118.9375 C 189.015625 119.210938 188.722656 119.359375 188.421875 119.359375 " fill-opacity="1" fill-rule="nonzero"/><path fill="#231f20" d="M 194.804688 109.226562 C 194.640625 109.226562 194.472656 109.183594 194.324219 109.085938 C 193.902344 108.824219 193.777344 108.265625 194.042969 107.84375 L 196.949219 103.222656 C 197.214844 102.800781 197.773438 102.675781 198.195312 102.941406 C 198.617188 103.207031 198.742188 103.761719 198.476562 104.183594 L 195.566406 108.804688 C 195.394531 109.078125 195.101562 109.226562 194.804688 109.226562 " fill-opacity="1" fill-rule="nonzero"/><path fill="#231f20" d="M 133.476562 142.402344 L 125.65625 138.828125 C 125.207031 138.621094 125.007812 138.085938 125.214844 137.632812 C 125.421875 137.179688 125.957031 136.980469 126.410156 137.1875 L 134.226562 140.761719 L 133.476562 142.402344 " fill-opacity="1" fill-rule="nonzero"/><path fill="#231f20" d="M 120.671875 136.460938 C 120.546875 136.460938 120.417969 136.433594 120.296875 136.378906 L 113.304688 133.179688 C 112.855469 132.972656 112.652344 132.4375 112.863281 131.988281 C 113.070312 131.535156 113.605469 131.335938 114.054688 131.542969 L 121.046875 134.738281 C 121.5 134.945312 121.699219 135.480469 121.492188 135.933594 C 121.339844 136.261719 121.015625 136.460938 120.671875 136.460938 " fill-opacity="1" fill-rule="nonzero"/><path fill="#231f20" d="M 212.894531 142.402344 L 212.144531 140.761719 L 220.207031 137.078125 C 220.65625 136.871094 221.191406 137.070312 221.398438 137.523438 C 221.605469 137.976562 221.410156 138.507812 220.957031 138.714844 L 212.894531 142.402344 " fill-opacity="1" fill-rule="nonzero"/><path fill="#231f20" d="M 229.535156 134.707031 C 229.191406 134.707031 228.863281 134.511719 228.714844 134.179688 C 228.503906 133.726562 228.707031 133.191406 229.160156 132.984375 L 232.3125 131.542969 C 232.765625 131.335938 233.300781 131.535156 233.507812 131.988281 C 233.714844 132.4375 233.515625 132.972656 233.0625 133.179688 L 229.910156 134.625 C 229.785156 134.679688 229.660156 134.707031 229.535156 134.707031 " fill-opacity="1" fill-rule="nonzero"/><path fill="#231f20" d="M 128.175781 176.703125 C 127.855469 176.703125 127.542969 176.527344 127.378906 176.222656 C 127.144531 175.78125 127.3125 175.238281 127.753906 175.003906 L 133.109375 172.160156 C 133.546875 171.929688 134.09375 172.09375 134.328125 172.535156 C 134.5625 172.972656 134.394531 173.519531 133.953125 173.753906 L 128.597656 176.597656 C 128.464844 176.667969 128.320312 176.703125 128.175781 176.703125 " fill-opacity="1" fill-rule="nonzero"/><path fill="#231f20" d="M 115.726562 183.425781 L 114.882812 181.835938 L 122.820312 177.621094 C 123.261719 177.386719 123.804688 177.554688 124.039062 177.996094 C 124.273438 178.433594 124.105469 178.980469 123.667969 179.214844 L 115.726562 183.425781 " fill-opacity="1" fill-rule="nonzero"/><path fill="#231f20" d="M 217.15625 175.804688 C 217.015625 175.804688 216.871094 175.773438 216.734375 175.699219 L 213.066406 173.753906 C 212.628906 173.519531 212.460938 172.972656 212.695312 172.535156 C 212.925781 172.09375 213.472656 171.929688 213.914062 172.160156 L 217.582031 174.109375 C 218.019531 174.34375 218.1875 174.886719 217.953125 175.328125 C 217.792969 175.632812 217.480469 175.804688 217.15625 175.804688 " fill-opacity="1" fill-rule="nonzero"/><path fill="#231f20" d="M 231.714844 183.53125 C 231.574219 183.53125 231.429688 183.5 231.292969 183.425781 L 222.4375 178.726562 C 221.996094 178.492188 221.828125 177.949219 222.0625 177.507812 C 222.296875 177.070312 222.84375 176.902344 223.28125 177.136719 L 232.140625 181.835938 C 232.578125 182.070312 232.746094 182.613281 232.515625 183.054688 C 232.351562 183.359375 232.039062 183.53125 231.714844 183.53125 " fill-opacity="1" fill-rule="nonzero"/></svg>