<svg version="1.1" id="Layer_1" xmlns="http://www.w3.org/2000/svg" xmlns:xlink="http://www.w3.org/1999/xlink" x="0px" y="0px"
	 width="100%" viewBox="0 0 500 500" enable-background="new 0 0 500 500" xml:space="preserve">
<path  opacity="1.000000" stroke="black" stroke-width="1"
	d="
M1.000000,245.000000 
	C1.000000,163.738770 1.000000,82.477547 1.000000,1.000000 
	C82.688553,1.000000 164.377289,1.000000 246.452911,1.410465 
	C246.593781,9.100565 246.103165,16.386448 246.288849,23.655060 
	C246.330688,25.292221 248.731491,26.869116 250.046356,28.473753 
	C251.016464,26.788666 252.749878,25.136633 252.824509,23.412775 
	C253.147491,15.953301 252.985565,8.472833 253.000000,1.000000 
	C335.642700,1.000000 418.285370,1.000000 500.964050,1.000000 
	C500.964050,167.594345 500.964050,334.188690 500.964050,500.891541 
	C334.454041,500.891541 167.908005,500.891541 1.000000,500.891541 
	C1.000000,418.311676 1.000000,335.622803 1.468343,252.448151 
	C12.549405,251.957916 23.167938,252.132080 33.769566,251.787003 
	C35.714207,251.723709 39.028767,249.738037 39.213657,248.315216 
	C39.670311,244.801010 36.231911,245.077133 33.832512,245.058914 
	C22.888823,244.975830 11.944253,245.008774 1.000000,245.000000 
M245.000000,339.500000 
	C244.999710,274.529297 245.010178,209.558594 244.966309,144.587906 
	C244.964188,141.446823 244.701645,138.269333 244.179352,135.173050 
	C243.187393,129.292480 240.101089,124.784264 234.045517,123.472649 
	C227.936523,122.149490 222.186752,122.925156 217.541367,127.990944 
	C216.298782,129.345993 213.895386,130.489059 212.116791,130.368958 
	C193.214737,129.092560 174.603104,141.689331 169.727219,160.055588 
	C168.350693,165.240662 165.558823,168.251556 161.447128,171.144028 
	C136.765167,188.507080 132.101227,220.191086 143.606094,243.757477 
	C145.739426,248.127350 145.897598,250.997650 143.140411,254.971497 
	C133.196182,269.303802 130.808868,285.601929 133.763077,302.271698 
	C138.963287,331.614716 156.792404,349.740265 185.614105,357.184998 
	C187.288544,357.617523 189.013092,358.644623 190.247345,359.866669 
	C199.155563,368.686615 209.901184,373.920441 221.982056,376.797821 
	C236.162064,380.175110 244.643478,373.707977 244.957092,358.991089 
	C245.088379,352.829865 244.992569,346.663818 245.000000,339.500000 
M364.013062,311.396851 
	C369.854034,291.054718 367.364319,271.856384 355.926788,253.977585 
	C354.068756,251.073166 353.422394,248.755081 355.175354,245.323898 
	C369.293884,217.689072 361.210510,186.748398 335.762482,169.028488 
	C333.298279,167.312637 331.062317,164.250549 330.229431,161.376144 
	C324.946960,143.145889 309.122162,130.336227 290.179749,130.348465 
	C285.710724,130.351349 282.860748,129.014114 279.708069,126.270607 
	C271.699249,119.301170 259.307739,122.691368 256.113251,132.643768 
	C255.220230,135.425903 255.048294,138.534424 255.046021,141.493622 
	C254.990341,213.791840 254.998749,286.090118 255.018753,358.388367 
	C255.019409,360.712646 255.021286,363.081238 255.437561,365.353149 
	C256.929016,373.493011 264.382568,378.876740 272.599365,377.734161 
	C286.546295,375.794769 298.635223,369.972473 308.890625,360.265045 
	C310.380188,358.855042 312.373993,357.610474 314.340363,357.127319 
	C338.988281,351.070862 355.187347,335.816711 364.013062,311.396851 
M231.994598,443.481689 
	C245.631454,456.946533 266.136658,452.609375 272.817596,434.703064 
	C274.104675,431.253418 275.559204,428.966888 279.584015,428.546112 
	C280.906128,428.407867 282.022644,426.302979 283.233154,425.097412 
	C281.915192,423.818604 280.760834,422.260315 279.221680,421.359344 
	C278.195862,420.758820 276.621613,421.024536 275.292694,421.023224 
	C258.464172,421.006561 241.635590,420.993439 224.807190,421.037933 
	C222.995117,421.042725 221.050491,421.078796 219.417023,421.728241 
	C218.228897,422.200684 216.597626,423.801056 216.698456,424.732391 
	C216.839844,426.038391 218.367172,428.201385 219.369919,428.240356 
	C225.018051,428.459778 226.130203,432.449310 227.572601,436.668243 
	C228.351807,438.947327 230.151291,440.877625 231.994598,443.481689 
M245.500000,409.000000 
	C237.355331,409.021179 229.205139,408.893372 221.070847,409.194550 
	C219.523285,409.251862 218.038544,411.005676 216.524780,411.976715 
	C217.974197,413.269775 219.273087,414.832062 220.928146,415.757233 
	C221.959991,416.334045 223.529785,415.988098 224.858185,415.988831 
	C241.646759,415.997925 258.435333,416.000183 275.223907,415.985657 
	C276.716949,415.984344 278.380493,416.239716 279.655457,415.676025 
	C280.962921,415.097961 282.700867,413.696808 282.751129,412.587921 
	C282.799377,411.523163 281.114716,409.977997 279.844086,409.369507 
	C278.598083,408.772827 276.914642,409.021362 275.422852,409.017670 
	C265.781952,408.993652 256.140961,409.002136 245.500000,409.000000 
M266.492981,396.000000 
	C251.532578,396.014038 236.570724,395.935638 221.613754,396.168884 
	C219.904495,396.195557 218.222458,397.967041 216.527802,398.929474 
	C218.126022,400.252014 219.708405,402.702362 221.324890,402.725067 
	C240.436005,402.993591 259.552979,402.969666 278.665527,402.759766 
	C280.114075,402.743866 281.540649,400.729034 282.977448,399.643372 
	C281.471130,398.457733 280.082947,396.497009 278.434235,396.245758 
	C274.856445,395.700470 271.145508,396.028839 266.492981,396.000000 
M226.582214,383.000275 
	C224.587860,383.032440 222.499725,382.711456 220.628738,383.208252 
	C219.124985,383.607544 217.884171,384.997040 216.526703,385.947174 
	C217.801025,387.228851 219.062271,389.611877 220.351639,389.627228 
	C240.127411,389.862244 259.907349,389.839752 279.684143,389.651550 
	C280.792786,389.640991 281.882782,387.672455 282.981476,386.615234 
	C281.794952,385.469635 280.788940,383.895599 279.371368,383.298370 
	C277.940277,382.695435 276.101044,383.011658 274.440582,383.010193 
	C258.812744,382.996460 243.184921,383.000885 226.582214,383.000275 
M372.500000,120.999992 
	C369.222229,124.307838 365.612122,127.362671 362.815430,131.036682 
	C361.532898,132.721481 361.848602,135.622849 361.439484,137.972504 
	C363.642944,137.451950 365.847534,136.935852 368.047333,136.400299 
	C368.187195,136.366241 368.292450,136.183090 368.410004,136.065506 
	C376.994995,127.479759 385.706116,119.013260 394.042389,110.192459 
	C395.470001,108.681854 396.536072,104.661919 395.623566,103.528252 
	C393.226318,100.550041 390.600952,102.978325 388.547546,104.999290 
	C383.331970,110.132607 378.178406,115.328911 372.500000,120.999992 
M402.499939,397.999939 
	C400.021088,395.550293 397.805420,392.708649 394.963135,390.800385 
	C393.300568,389.684174 389.900574,389.027802 388.578156,389.974640 
	C385.798157,391.965027 387.959320,394.386292 389.741913,396.182983 
	C398.274811,404.783691 406.860657,413.331879 415.416107,421.910309 
	C417.311493,423.810822 419.112701,425.305084 421.697754,422.740143 
	C424.261322,420.196564 422.883453,418.377472 420.954102,416.456604 
	C414.955658,410.484833 408.982758,404.487396 402.499939,397.999939 
M86.999985,404.500000 
	C82.657028,408.876221 78.099411,413.069305 74.109245,417.746490 
	C72.993446,419.054382 73.551109,421.789886 73.341095,423.870514 
	C75.300026,423.633087 77.956749,424.131317 79.106483,423.040771 
	C87.566322,415.016357 95.822166,406.766907 103.862175,398.321655 
	C104.930779,397.199188 104.421471,394.574493 104.642914,392.645538 
	C102.595062,392.791473 99.920502,392.166656 98.616325,393.227142 
	C94.627975,396.470184 91.166458,400.361115 86.999985,404.500000 
M441.252350,324.209137 
	C438.576233,322.862213 436.018951,321.044220 433.183502,320.328705 
	C431.186462,319.824738 428.811401,320.818939 426.605103,321.144257 
	C427.717926,323.077698 428.351593,325.846558 430.023438,326.805481 
	C439.110199,332.017517 448.372253,336.948517 457.782593,341.549469 
	C459.472260,342.375549 462.137665,341.205963 464.352570,340.957794 
	C463.289124,339.004425 462.717651,336.258331 461.074738,335.238678 
	C454.866364,331.385712 448.310089,328.093414 441.252350,324.209137 
M88.499886,81.999886 
	C86.032532,79.544975 83.597694,77.056190 81.087494,74.645897 
	C79.091835,72.729683 76.496025,70.737282 74.372025,73.493439 
	C73.472275,74.660980 74.285210,78.403320 75.583878,79.799759 
	C82.351616,87.077042 89.397247,94.114471 96.670822,100.886688 
	C98.083115,102.201630 101.727676,103.096680 102.965820,102.226494 
	C105.923454,100.147827 103.848663,97.509377 101.961868,95.554977 
	C97.703072,91.143578 93.327805,86.844627 88.499886,81.999886 
M461.352997,253.686081 
	C471.340729,253.745956 481.335602,254.015366 491.309601,253.673721 
	C493.118011,253.611801 494.840729,251.046631 496.602997,249.637100 
	C494.877258,248.450211 493.184631,246.297607 491.420227,246.237045 
	C481.771637,245.905838 472.101746,245.955963 462.448792,246.223221 
	C460.814545,246.268478 459.227203,248.007828 457.618195,248.964478 
	C458.598297,250.465134 459.578369,251.965805 461.352997,253.686081 
M413.643982,176.157272 
	C412.122284,176.820389 410.589569,177.459473 409.080872,178.150894 
	C403.797882,180.571960 398.414124,182.811600 393.327332,185.593231 
	C392.156219,186.233612 391.487061,188.797409 391.610321,190.397247 
	C391.677094,191.264374 394.320190,192.928635 395.088898,192.594559 
	C404.370300,188.560822 413.561890,184.308685 422.639893,179.835556 
	C423.635437,179.345032 424.618286,176.565338 424.130188,175.836624 
	C423.316193,174.621429 421.269806,173.538422 419.811951,173.621536 
	C417.948303,173.727798 416.153778,175.046188 413.643982,176.157272 
M48.273743,338.782074 
	C54.817467,335.188263 61.451611,331.743622 67.830597,327.877960 
	C69.146584,327.080444 69.511742,324.713928 70.315155,323.070587 
	C68.412262,322.574738 66.032188,321.091980 64.684189,321.743744 
	C56.171360,325.859772 47.819977,330.331696 39.617664,335.038727 
	C38.649944,335.594055 38.290768,338.541534 38.829472,339.918427 
	C39.184151,340.825012 41.706707,341.379181 43.165302,341.222626 
	C44.711468,341.056732 46.147331,339.863068 48.273743,338.782074 
M424.496643,254.000000 
	C428.804321,253.907303 433.152740,254.121185 437.397797,253.557175 
	C438.902191,253.357285 440.154877,251.262527 441.522461,250.032852 
	C440.070129,248.738052 438.663605,246.388626 437.157898,246.323227 
	C428.717896,245.956665 420.246277,245.956177 411.805176,246.306396 
	C410.268524,246.370163 408.823242,248.635086 407.335785,249.883881 
	C408.911163,251.219513 410.341919,253.419128 412.091827,253.712051 
	C415.807678,254.334061 419.689697,253.963593 424.496643,254.000000 
M83.589897,175.822937 
	C82.034370,175.289383 80.471977,174.324387 78.925323,174.348999 
	C77.503822,174.371613 75.351555,175.134460 74.900391,176.171295 
	C74.461159,177.180710 75.417862,179.299149 76.402779,180.299240 
	C77.624420,181.539719 79.460602,182.228500 81.109535,182.985168 
	C87.425308,185.883453 93.756828,188.748871 100.116577,191.549088 
	C102.250641,192.488754 104.499123,194.467255 106.246742,190.713455 
	C108.051155,186.837631 105.551399,185.726334 102.843605,184.511139 
	C96.654747,181.733749 90.476974,178.931656 83.589897,175.822937 
M45.029774,166.501724 
	C48.069889,167.849304 51.110668,169.195389 54.149899,170.544968 
	C56.682098,171.669388 59.743034,172.873520 60.880032,169.493805 
	C61.336475,168.137039 59.259254,164.900406 57.559708,164.024948 
	C50.474693,160.375351 43.174255,157.096420 35.758450,154.174988 
	C34.193695,153.558563 31.809656,155.021820 29.803114,155.526810 
	C30.730772,157.257355 31.225502,159.698807 32.670963,160.579056 
	C36.338470,162.812454 40.432114,164.346085 45.029774,166.501724 
M75.490112,245.000000 
	C70.010170,245.025833 64.514229,244.828644 59.060520,245.219971 
	C57.521069,245.330429 56.105232,247.163651 54.632706,248.206726 
	C55.964386,249.414612 57.263195,251.624146 58.633038,251.669113 
	C68.085426,251.979309 77.556114,251.960449 87.010834,251.692062 
	C88.240860,251.657150 89.413177,249.589325 90.612221,248.463135 
	C89.388741,247.357773 88.275887,245.493729 86.920067,245.296036 
	C83.499565,244.797287 79.969650,245.049011 75.490112,245.000000 
M414.499695,90.000320 
	C417.868805,86.554176 421.422028,83.261055 424.492828,79.566940 
	C425.392914,78.484200 424.922699,76.262337 425.080505,74.562569 
	C423.417908,74.422554 421.035034,73.502144 420.206970,74.266373 
	C413.755280,80.220703 407.501648,86.404060 401.485046,92.797363 
	C400.729584,93.600121 401.129333,96.652634 402.061371,97.534218 
	C402.893555,98.321404 405.648834,98.159042 406.770355,97.340240 
	C409.427917,95.399963 411.619446,92.821304 414.499695,90.000320 
M175.007660,64.490021 
	C172.556458,60.528343 170.205795,56.499352 167.615646,52.630692 
	C166.106155,50.376106 164.110641,48.065823 161.072815,50.108875 
	C158.158768,52.068668 159.810913,54.472523 161.133224,56.643883 
	C162.604385,59.059692 164.076401,61.475533 165.589020,63.865417 
	C167.813309,67.379745 169.803589,71.096863 172.448578,74.264069 
	C173.547501,75.579964 176.077316,75.700890 177.956451,76.365219 
	C178.223602,74.460121 179.039886,72.420189 178.613922,70.685272 
	C178.121399,68.679291 176.535019,66.941887 175.007660,64.490021 
M118.037781,114.569023 
	C114.335747,116.856651 115.350815,119.570923 117.654953,121.997032 
	C122.117302,126.695587 126.610756,131.396896 131.471329,135.664230 
	C132.834167,136.860718 135.523346,136.546494 137.604126,136.925247 
	C137.322479,134.726410 137.826691,131.847153 136.617905,130.451050 
	C132.277328,125.437843 127.415504,120.865501 122.609489,116.274323 
	C121.621819,115.330811 120.024979,115.024956 118.037781,114.569023 
M96.597069,313.134155 
	C99.209160,311.675690 101.826149,310.225891 104.431870,308.756134 
	C106.675919,307.490387 109.367455,305.893127 107.399345,303.126923 
	C106.535248,301.912415 103.038605,301.388672 101.423950,302.103149 
	C95.663971,304.651855 90.087456,307.684174 84.705505,310.966400 
	C83.468735,311.720673 83.283447,314.199127 82.614273,315.884094 
	C84.360260,316.378967 86.297752,317.606445 87.810959,317.210876 
	C90.653847,316.467743 93.251587,314.786804 96.597069,313.134155 
M380.228882,380.466003 
	C379.865936,378.612793 380.111877,376.218811 379.031708,375.002594 
	C374.964783,370.423309 370.633148,366.035645 366.017181,362.016663 
	C364.791077,360.949066 362.195190,361.454681 360.228241,361.237946 
	C360.502228,363.311981 360.040466,366.020996 361.183258,367.345276 
	C365.183380,371.980560 369.576263,376.322388 374.191772,380.349579 
	C375.365417,381.373596 377.914368,380.821411 380.228882,380.466003 
M246.073364,66.976097 
	C246.090652,73.634743 245.908142,80.304741 246.284943,86.942978 
	C246.365387,88.360222 248.477280,89.662163 249.653305,91.017212 
	C250.744598,89.615387 252.703156,88.258522 252.778549,86.804039 
	C253.122879,80.162125 253.121262,73.484192 252.807373,66.839821 
	C252.735062,65.309044 250.940887,63.859604 249.939102,62.372730 
	C248.675217,63.616749 247.411331,64.860764 246.073364,66.976097 
M316.871613,93.332329 
	C318.224304,90.842873 320.333893,87.806801 316.637573,86.208359 
	C315.273590,85.618523 311.858612,87.727730 310.541412,89.479767 
	C307.360809,93.710312 304.573517,98.314331 302.263214,103.076141 
	C301.526611,104.594276 302.790009,107.082748 303.138245,109.127243 
	C304.927734,108.289200 307.333374,107.918083 308.389618,106.524345 
	C311.391602,102.563087 313.842926,98.184494 316.871613,93.332329 
M338.136597,59.617992 
	C338.816223,58.479214 339.915253,57.397919 340.080963,56.188721 
	C340.355835,54.183109 340.030457,52.095238 339.957916,50.042019 
	C338.002197,50.677986 335.271301,50.715771 334.233795,52.060284 
	C330.906189,56.372490 327.931183,61.025848 325.420929,65.859589 
	C324.617676,67.406387 325.684662,69.924446 325.895966,71.998131 
	C327.816406,71.301079 330.359711,71.143730 331.528259,69.795151 
	C333.996918,66.946251 335.746857,63.474575 338.136597,59.617992 
M193.187363,93.321602 
	C192.730255,92.633446 192.315216,91.912437 191.808182,91.263252 
	C190.241684,89.257507 188.713715,85.846779 185.813965,88.424507 
	C184.626968,89.479691 184.867157,93.345291 185.786057,95.311882 
	C187.657516,99.317154 190.206512,103.077095 192.946884,106.568810 
	C193.990860,107.899002 196.326843,108.215187 198.073990,108.993515 
	C198.394470,106.928596 199.512482,104.558128 198.863647,102.864586 
	C197.643448,99.679810 195.403290,96.885818 193.187363,93.321602 
M409.229889,307.280518 
	C405.508911,305.425629 401.893311,303.281921 398.012238,301.865723 
	C396.570435,301.339569 394.506622,302.518066 392.726410,302.919220 
	C393.435333,304.719482 393.632568,307.260101 394.954315,308.173553 
	C398.208984,310.422791 401.885406,312.168182 405.589050,313.610931 
	C407.153992,314.220490 409.213684,313.560059 411.048462,313.476929 
	C410.638733,311.558411 410.228973,309.639862 409.229889,307.280518 
M450.565155,160.915726 
	C450.148804,164.309113 452.122650,165.957733 454.963318,165.065567 
	C459.045319,163.783554 462.959900,161.801315 466.685333,159.663788 
	C467.663757,159.102386 468.412476,156.533661 467.937866,155.492401 
	C467.449646,154.421127 464.948486,153.182877 464.002808,153.588974 
	C459.492645,155.525711 455.212097,157.997055 450.565155,160.915726 
M137.016129,360.503662 
	C136.144760,360.106262 134.769012,359.140198 134.478546,359.397797 
	C130.800049,362.660187 127.277740,366.098694 123.715607,369.492310 
	C125.134872,370.674896 126.536362,372.823334 127.976906,372.849854 
	C131.579269,372.916168 137.440475,365.114960 137.016129,360.503662 
z"/>
<path fill="#231F20" opacity="1.000000" stroke="none" 
	d="
M1.000000,245.437500 
	C11.944253,245.008774 22.888823,244.975830 33.832512,245.058914 
	C36.231911,245.077133 39.670311,244.801010 39.213657,248.315216 
	C39.028767,249.738037 35.714207,251.723709 33.769566,251.787003 
	C23.167938,252.132080 12.549405,251.957916 1.468343,251.981171 
	C1.000000,249.958328 1.000000,247.916672 1.000000,245.437500 
z"/>
<path fill="#231F20" opacity="1.000000" stroke="none" 
	d="
M252.571533,1.000000 
	C252.985565,8.472833 253.147491,15.953301 252.824509,23.412775 
	C252.749878,25.136633 251.016464,26.788666 250.046356,28.473753 
	C248.731491,26.869116 246.330688,25.292221 246.288849,23.655060 
	C246.103165,16.386448 246.593781,9.100565 246.919891,1.410465 
	C248.714355,1.000000 250.428711,1.000000 252.571533,1.000000 
z"/>
<path fill="#231F20" opacity="1.000000" stroke="none" 
	d="
M245.000000,340.000000 
	C244.992569,346.663818 245.088379,352.829865 244.957092,358.991089 
	C244.643478,373.707977 236.162064,380.175110 221.982056,376.797821 
	C209.901184,373.920441 199.155563,368.686615 190.247345,359.866669 
	C189.013092,358.644623 187.288544,357.617523 185.614105,357.184998 
	C156.792404,349.740265 138.963287,331.614716 133.763077,302.271698 
	C130.808868,285.601929 133.196182,269.303802 143.140411,254.971497 
	C145.897598,250.997650 145.739426,248.127350 143.606094,243.757477 
	C132.101227,220.191086 136.765167,188.507080 161.447128,171.144028 
	C165.558823,168.251556 168.350693,165.240662 169.727219,160.055588 
	C174.603104,141.689331 193.214737,129.092560 212.116791,130.368958 
	C213.895386,130.489059 216.298782,129.345993 217.541367,127.990944 
	C222.186752,122.925156 227.936523,122.149490 234.045517,123.472649 
	C240.101089,124.784264 243.187393,129.292480 244.179352,135.173050 
	C244.701645,138.269333 244.964188,141.446823 244.966309,144.587906 
	C245.010178,209.558594 244.999710,274.529297 245.000000,340.000000 
M213.960327,187.430557 
	C223.207367,174.457169 224.192017,160.331467 219.492279,145.571045 
	C218.425629,142.221024 217.317902,138.559387 212.569016,138.046097 
	C199.195480,136.600555 184.544556,144.744995 179.083221,157.039749 
	C178.411911,158.551025 178.293213,160.307770 177.604431,163.327118 
	C183.704193,161.379776 188.459808,159.474747 193.397720,158.436996 
	C196.153336,157.857880 199.666809,157.928421 201.955536,159.243454 
	C203.235565,159.978897 203.656754,164.277344 202.790161,166.225204 
	C201.259277,169.666229 197.830475,170.092651 194.194748,168.909286 
	C192.355804,168.310730 190.187347,167.757050 188.386215,168.159729 
	C170.559555,172.145264 156.403458,180.966446 148.970825,198.548584 
	C139.976501,219.824966 146.590454,241.588776 162.658554,256.883148 
	C167.556198,261.544952 172.714844,266.615570 180.685547,266.436340 
	C182.339462,266.399139 185.180496,269.232391 185.461227,271.053131 
	C185.790604,273.189270 184.537369,276.667328 182.834396,277.712982 
	C181.099854,278.778015 177.310883,278.503998 175.593948,277.232727 
	C169.221176,272.514191 163.309265,267.169128 157.274002,262.001251 
	C155.443405,260.433777 153.773438,258.678711 151.368454,256.376312 
	C149.194992,259.987823 147.119492,262.794037 145.705307,265.901245 
	C140.466843,277.410980 138.859772,289.360107 141.054703,301.956787 
	C145.405106,326.923859 167.742920,348.273315 192.263748,350.174652 
	C196.817245,350.527740 201.614059,350.865265 205.242783,346.780823 
	C207.710846,344.002838 211.252197,342.781281 214.080856,345.343842 
	C215.766617,346.871002 216.782990,350.411560 216.345856,352.713867 
	C215.662079,356.315155 212.195038,356.861237 208.743896,356.741943 
	C206.264740,356.656219 203.766647,357.119110 201.276993,357.337280 
	C202.087799,359.622192 202.999268,360.907410 204.229095,361.403595 
	C211.738571,364.433380 219.186066,367.733643 226.922958,370.043640 
	C232.518433,371.714264 236.812424,368.057587 236.877777,362.142029 
	C237.056320,345.980316 237.053223,329.813843 236.809113,313.653961 
	C236.780106,311.733398 235.287231,308.977844 233.661331,308.081543 
	C224.951233,303.279907 219.224930,295.912689 214.715378,287.397369 
	C209.886948,278.279968 205.698792,268.780182 200.301285,260.020264 
	C195.457596,252.159164 189.969727,244.305420 180.011765,241.992249 
	C176.697632,241.222382 173.917236,239.676804 174.402573,236.237686 
	C174.736191,233.873672 176.547226,230.899857 178.572037,229.782166 
	C181.706116,228.052185 184.502747,229.936005 186.465805,232.995773 
	C187.696136,234.913437 189.188843,236.824249 190.980331,238.192963 
	C199.502045,244.703705 205.794006,252.990997 210.678253,262.405029 
	C214.667679,270.094391 218.392914,277.920502 222.354904,285.624451 
	C225.419708,291.583832 229.930786,296.204071 236.428360,300.661133 
	C236.677887,297.189819 236.977432,294.956085 236.978622,292.722229 
	C237.005157,242.896881 237.000748,193.071548 236.991562,143.246201 
	C236.991196,141.248184 237.488556,138.956192 236.689987,137.320724 
	C235.474670,134.831802 233.729202,132.021759 231.438721,130.836716 
	C229.846130,130.012726 225.860977,130.986862 224.942520,132.429550 
	C223.887283,134.087067 224.441711,137.388153 225.320541,139.561401 
	C233.226837,159.113297 231.138367,177.304382 218.520248,194.270477 
	C215.964172,197.707336 213.995300,201.668167 211.039963,204.686676 
	C209.381927,206.380157 206.114380,207.579987 203.839127,207.235901 
	C202.098831,206.972717 199.488556,203.864868 199.586853,202.155899 
	C199.718140,199.873093 201.711533,196.297638 203.585388,195.790512 
	C208.260605,194.525192 210.999512,191.594940 213.960327,187.430557 
z"/>
<path fill="#231F20" opacity="1.000000" stroke="none" 
	d="
M363.901123,311.779358 
	C355.187347,335.816711 338.988281,351.070862 314.340363,357.127319 
	C312.373993,357.610474 310.380188,358.855042 308.890625,360.265045 
	C298.635223,369.972473 286.546295,375.794769 272.599365,377.734161 
	C264.382568,378.876740 256.929016,373.493011 255.437561,365.353149 
	C255.021286,363.081238 255.019409,360.712646 255.018753,358.388367 
	C254.998749,286.090118 254.990341,213.791840 255.046021,141.493622 
	C255.048294,138.534424 255.220230,135.425903 256.113251,132.643768 
	C259.307739,122.691368 271.699249,119.301170 279.708069,126.270607 
	C282.860748,129.014114 285.710724,130.351349 290.179749,130.348465 
	C309.122162,130.336227 324.946960,143.145889 330.229431,161.376144 
	C331.062317,164.250549 333.298279,167.312637 335.762482,169.028488 
	C361.210510,186.748398 369.293884,217.689072 355.175354,245.323898 
	C353.422394,248.755081 354.068756,251.073166 355.926788,253.977585 
	C367.364319,271.856384 369.854034,291.054718 363.901123,311.779358 
M281.590271,277.095764 
	C287.086945,266.294830 291.417877,254.808960 300.268066,246.002563 
	C305.178345,241.116608 309.723175,235.839874 314.878632,231.238922 
	C316.336578,229.937820 319.909882,229.413330 321.533020,230.308868 
	C323.410065,231.344452 325.340851,234.452530 325.145111,236.455215 
	C324.955383,238.396317 322.356964,240.480865 320.347260,241.772217 
	C317.651489,243.504395 314.115906,244.030853 311.620941,245.956177 
	C302.416382,253.059189 296.689728,262.788910 292.067444,273.262695 
	C285.900970,287.235504 279.056335,300.672577 265.062012,308.764435 
	C263.793488,309.497955 262.753113,311.765015 262.729523,313.336823 
	C262.487488,329.433014 262.298401,345.534882 262.489960,361.630432 
	C262.568573,368.235809 266.701904,371.399963 273.191528,369.908783 
	C279.157501,368.537964 285.040680,366.566162 290.711487,364.249939 
	C293.690979,363.032990 296.137390,360.510986 298.824493,358.578308 
	C298.634277,358.089508 298.444061,357.600708 298.253845,357.111908 
	C295.836731,356.913086 293.358398,356.281342 291.016296,356.612732 
	C287.105988,357.166138 283.993011,355.988739 283.141449,352.338531 
	C282.653870,350.248596 283.608765,346.857605 285.172424,345.464813 
	C287.982483,342.961700 291.141785,344.115112 294.114929,346.561005 
	C296.139130,348.226196 298.897644,349.601318 301.468262,349.900940 
	C316.930481,351.702911 329.544006,344.906982 340.285126,334.970123 
	C355.626343,320.777557 361.744507,302.600067 358.591309,282.011871 
	C357.460968,274.631287 353.710785,267.622742 350.896118,260.547913 
	C350.098145,258.542114 348.432343,256.644287 345.849792,258.803284 
	C338.864594,264.643005 332.048157,270.699799 324.835327,276.241699 
	C322.939545,277.698273 319.446686,278.656647 317.421234,277.894165 
	C315.603210,277.209747 313.798553,273.856293 313.776917,271.662598 
	C313.745880,268.517914 316.215790,266.546692 319.733978,266.055359 
	C322.611115,265.653534 325.891724,265.273224 328.138214,263.678528 
	C345.484711,251.365067 356.205078,235.495697 354.029633,213.104843 
	C351.639130,188.500595 334.911652,173.125427 311.786194,168.198944 
	C309.801239,167.776108 307.404572,168.091507 305.485107,168.818726 
	C302.079865,170.108841 298.727417,170.154831 297.231079,166.853943 
	C296.259552,164.710770 296.449188,160.963318 297.767609,159.103821 
	C299.933777,156.048645 303.441406,156.936691 306.822876,158.327499 
	C311.443848,160.228058 316.321777,161.503876 321.602356,163.213531 
	C321.602356,161.122208 321.844086,160.229858 321.566711,159.548981 
	C315.827057,145.459518 302.445892,136.222153 286.302307,138.312775 
	C284.508667,138.545074 282.324738,140.755066 281.491150,142.581528 
	C276.845551,152.760284 275.105682,163.514603 279.223785,174.126846 
	C282.625641,182.893387 285.367279,192.586472 296.347473,195.891663 
	C298.002808,196.389923 299.651703,200.137634 299.541840,202.292404 
	C299.446991,204.151535 297.039612,207.074951 295.298187,207.361420 
	C293.233337,207.701126 290.212097,206.273041 288.630035,204.626526 
	C285.689148,201.565765 283.198853,197.961487 281.051758,194.274399 
	C277.809235,188.706207 274.145874,183.151581 272.220093,177.095520 
	C267.979645,163.760269 269.088867,150.427628 275.178925,137.722076 
	C276.985352,133.953445 276.203247,131.547531 272.257568,130.502563 
	C268.217163,129.432510 264.748871,130.599747 263.406586,134.799896 
	C262.516632,137.584595 262.210693,140.667526 262.228912,143.613312 
	C262.384674,168.830566 262.823730,194.046631 262.882202,219.263748 
	C262.941803,244.976974 262.655060,270.690948 262.579773,296.404755 
	C262.576721,297.443115 263.186646,298.483276 263.640686,299.938293 
	C272.722015,294.642578 277.075714,286.277863 281.590271,277.095764 
z"/>
<path fill="#231F20" opacity="1.000000" stroke="none" 
	d="
M231.742554,443.223480 
	C230.151291,440.877625 228.351807,438.947327 227.572601,436.668243 
	C226.130203,432.449310 225.018051,428.459778 219.369919,428.240356 
	C218.367172,428.201385 216.839844,426.038391 216.698456,424.732391 
	C216.597626,423.801056 218.228897,422.200684 219.417023,421.728241 
	C221.050491,421.078796 222.995117,421.042725 224.807190,421.037933 
	C241.635590,420.993439 258.464172,421.006561 275.292694,421.023224 
	C276.621613,421.024536 278.195862,420.758820 279.221680,421.359344 
	C280.760834,422.260315 281.915192,423.818604 283.233154,425.097412 
	C282.022644,426.302979 280.906128,428.407867 279.584015,428.546112 
	C275.559204,428.966888 274.104675,431.253418 272.817596,434.703064 
	C266.136658,452.609375 245.631454,456.946533 231.742554,443.223480 
M237.007278,437.452454 
	C245.267776,447.879211 259.416016,444.899963 264.679504,434.529663 
	C266.787415,430.376556 266.078003,429.122589 261.446991,429.047028 
	C254.475922,428.933258 247.498306,428.883911 240.531006,429.077545 
	C238.388443,429.137115 236.270447,430.080566 234.141205,430.619293 
	C234.934464,432.719055 235.727722,434.818817 237.007278,437.452454 
z"/>
<path fill="#231F20" opacity="1.000000" stroke="none" 
	d="
M246.000000,409.000000 
	C256.140961,409.002136 265.781952,408.993652 275.422852,409.017670 
	C276.914642,409.021362 278.598083,408.772827 279.844086,409.369507 
	C281.114716,409.977997 282.799377,411.523163 282.751129,412.587921 
	C282.700867,413.696808 280.962921,415.097961 279.655457,415.676025 
	C278.380493,416.239716 276.716949,415.984344 275.223907,415.985657 
	C258.435333,416.000183 241.646759,415.997925 224.858185,415.988831 
	C223.529785,415.988098 221.959991,416.334045 220.928146,415.757233 
	C219.273087,414.832062 217.974197,413.269775 216.524796,411.976746 
	C218.038544,411.005676 219.523285,409.251862 221.070847,409.194550 
	C229.205139,408.893372 237.355331,409.021179 246.000000,409.000000 
z"/>
<path fill="#231F20" opacity="1.000000" stroke="none" 
	d="
M266.990997,396.000000 
	C271.145508,396.028839 274.856445,395.700470 278.434235,396.245758 
	C280.082947,396.497009 281.471130,398.457733 282.977448,399.643372 
	C281.540649,400.729034 280.114075,402.743866 278.665527,402.759766 
	C259.552979,402.969666 240.436005,402.993591 221.324890,402.725067 
	C219.708405,402.702362 218.126022,400.252014 216.527802,398.929474 
	C218.222458,397.967041 219.904495,396.195557 221.613754,396.168884 
	C236.570724,395.935638 251.532578,396.014038 266.990997,396.000000 
z"/>
<path fill="#231F20" opacity="1.000000" stroke="none" 
	d="
M227.069656,383.000183 
	C243.184921,383.000885 258.812744,382.996460 274.440582,383.010193 
	C276.101044,383.011658 277.940277,382.695435 279.371368,383.298370 
	C280.788940,383.895599 281.794952,385.469635 282.981476,386.615234 
	C281.882782,387.672455 280.792786,389.640991 279.684143,389.651550 
	C259.907349,389.839752 240.127411,389.862244 220.351639,389.627228 
	C219.062271,389.611877 217.801025,387.228851 216.526703,385.947174 
	C217.884171,384.997040 219.124985,383.607544 220.628738,383.208252 
	C222.499725,382.711456 224.587860,383.032440 227.069656,383.000183 
z"/>
<path fill="#231F20" opacity="1.000000" stroke="none" 
	d="
M372.750000,120.750000 
	C378.178406,115.328911 383.331970,110.132607 388.547546,104.999290 
	C390.600952,102.978325 393.226318,100.550041 395.623566,103.528252 
	C396.536072,104.661919 395.470001,108.681854 394.042389,110.192459 
	C385.706116,119.013260 376.994995,127.479759 368.410004,136.065506 
	C368.292450,136.183090 368.187195,136.366241 368.047333,136.400299 
	C365.847534,136.935852 363.642944,137.451950 361.439514,137.972504 
	C361.848602,135.622849 361.532898,132.721481 362.815430,131.036682 
	C365.612122,127.362671 369.222229,124.307838 372.750000,120.750000 
z"/>
<path fill="#231F20" opacity="1.000000" stroke="none" 
	d="
M402.749939,398.249939 
	C408.982758,404.487396 414.955658,410.484833 420.954102,416.456604 
	C422.883453,418.377472 424.261322,420.196564 421.697754,422.740143 
	C419.112701,425.305084 417.311493,423.810822 415.416107,421.910309 
	C406.860657,413.331879 398.274811,404.783691 389.741913,396.182983 
	C387.959320,394.386292 385.798157,391.965027 388.578156,389.974640 
	C389.900574,389.027802 393.300568,389.684174 394.963135,390.800385 
	C397.805420,392.708649 400.021088,395.550293 402.749939,398.249939 
z"/>
<path fill="#231F20" opacity="1.000000" stroke="none" 
	d="
M87.250000,404.250000 
	C91.166458,400.361115 94.627975,396.470184 98.616325,393.227142 
	C99.920502,392.166656 102.595062,392.791473 104.642914,392.645508 
	C104.421471,394.574493 104.930779,397.199188 103.862175,398.321655 
	C95.822166,406.766907 87.566322,415.016357 79.106483,423.040771 
	C77.956749,424.131317 75.300026,423.633087 73.341095,423.870514 
	C73.551109,421.789886 72.993446,419.054382 74.109245,417.746490 
	C78.099411,413.069305 82.657028,408.876221 87.250000,404.250000 
z"/>
<path fill="#231F20" opacity="1.000000" stroke="none" 
	d="
M441.568176,324.400208 
	C448.310089,328.093414 454.866364,331.385712 461.074738,335.238678 
	C462.717651,336.258331 463.289124,339.004425 464.352570,340.957764 
	C462.137665,341.205963 459.472260,342.375549 457.782593,341.549469 
	C448.372253,336.948517 439.110199,332.017517 430.023438,326.805481 
	C428.351593,325.846558 427.717926,323.077698 426.605103,321.144226 
	C428.811401,320.818939 431.186462,319.824738 433.183502,320.328705 
	C436.018951,321.044220 438.576233,322.862213 441.568176,324.400208 
z"/>
<path fill="#231F20" opacity="1.000000" stroke="none" 
	d="
M88.749908,82.249908 
	C93.327805,86.844627 97.703072,91.143578 101.961868,95.554977 
	C103.848663,97.509377 105.923454,100.147827 102.965820,102.226494 
	C101.727676,103.096680 98.083115,102.201630 96.670822,100.886688 
	C89.397247,94.114471 82.351616,87.077042 75.583878,79.799759 
	C74.285210,78.403320 73.472275,74.660980 74.372025,73.493439 
	C76.496025,70.737282 79.091835,72.729683 81.087494,74.645897 
	C83.597694,77.056190 86.032532,79.544975 88.749908,82.249908 
z"/>
<path fill="#231F20" opacity="1.000000" stroke="none" 
	d="
M460.955719,253.576279 
	C459.578369,251.965805 458.598297,250.465134 457.618195,248.964478 
	C459.227203,248.007828 460.814545,246.268478 462.448792,246.223221 
	C472.101746,245.955963 481.771637,245.905838 491.420227,246.237045 
	C493.184631,246.297607 494.877258,248.450211 496.602997,249.637100 
	C494.840729,251.046631 493.118011,253.611801 491.309601,253.673721 
	C481.335602,254.015366 471.340729,253.745956 460.955719,253.576279 
z"/>
<path fill="#231F20" opacity="1.000000" stroke="none" 
	d="
M413.986725,175.999725 
	C416.153778,175.046188 417.948303,173.727798 419.811951,173.621536 
	C421.269806,173.538422 423.316193,174.621429 424.130188,175.836624 
	C424.618286,176.565338 423.635437,179.345032 422.639893,179.835556 
	C413.561890,184.308685 404.370300,188.560822 395.088898,192.594559 
	C394.320190,192.928635 391.677094,191.264374 391.610321,190.397247 
	C391.487061,188.797409 392.156219,186.233612 393.327332,185.593231 
	C398.414124,182.811600 403.797882,180.571960 409.080872,178.150894 
	C410.589569,177.459473 412.122284,176.820389 413.986725,175.999725 
z"/>
<path fill="#231F20" opacity="1.000000" stroke="none" 
	d="
M47.952557,338.950165 
	C46.147331,339.863068 44.711468,341.056732 43.165302,341.222626 
	C41.706707,341.379181 39.184151,340.825012 38.829472,339.918427 
	C38.290768,338.541534 38.649944,335.594055 39.617664,335.038727 
	C47.819977,330.331696 56.171360,325.859772 64.684189,321.743744 
	C66.032188,321.091980 68.412262,322.574738 70.315155,323.070587 
	C69.511742,324.713928 69.146584,327.080444 67.830597,327.877960 
	C61.451611,331.743622 54.817467,335.188263 47.952557,338.950165 
z"/>
<path fill="#231F20" opacity="1.000000" stroke="none" 
	d="
M424.000122,254.000000 
	C419.689697,253.963593 415.807678,254.334061 412.091827,253.712051 
	C410.341919,253.419128 408.911163,251.219513 407.335785,249.883881 
	C408.823242,248.635086 410.268524,246.370163 411.805176,246.306396 
	C420.246277,245.956177 428.717896,245.956665 437.157898,246.323227 
	C438.663605,246.388626 440.070129,248.738052 441.522461,250.032837 
	C440.154877,251.262527 438.902191,253.357285 437.397797,253.557175 
	C433.152740,254.121185 428.804321,253.907303 424.000122,254.000000 
z"/>
<path fill="#231F20" opacity="1.000000" stroke="none" 
	d="
M83.942307,175.981262 
	C90.476974,178.931656 96.654747,181.733749 102.843605,184.511139 
	C105.551399,185.726334 108.051155,186.837631 106.246742,190.713455 
	C104.499123,194.467255 102.250641,192.488754 100.116577,191.549088 
	C93.756828,188.748871 87.425308,185.883453 81.109535,182.985168 
	C79.460602,182.228500 77.624420,181.539719 76.402779,180.299240 
	C75.417862,179.299149 74.461159,177.180710 74.900391,176.171295 
	C75.351555,175.134460 77.503822,174.371613 78.925323,174.348999 
	C80.471977,174.324387 82.034370,175.289383 83.942307,175.981262 
z"/>
<path fill="#231F20" opacity="1.000000" stroke="none" 
	d="
M44.692451,166.330811 
	C40.432114,164.346085 36.338470,162.812454 32.670963,160.579056 
	C31.225502,159.698807 30.730772,157.257355 29.803116,155.526825 
	C31.809656,155.021820 34.193695,153.558563 35.758450,154.174988 
	C43.174255,157.096420 50.474693,160.375351 57.559708,164.024948 
	C59.259254,164.900406 61.336475,168.137039 60.880032,169.493805 
	C59.743034,172.873520 56.682098,171.669388 54.149899,170.544968 
	C51.110668,169.195389 48.069889,167.849304 44.692451,166.330811 
z"/>
<path fill="#231F20" opacity="1.000000" stroke="none" 
	d="
M75.986847,245.000000 
	C79.969650,245.049011 83.499565,244.797287 86.920067,245.296036 
	C88.275887,245.493729 89.388741,247.357773 90.612228,248.463135 
	C89.413177,249.589325 88.240860,251.657150 87.010834,251.692062 
	C77.556114,251.960449 68.085426,251.979309 58.633038,251.669113 
	C57.263195,251.624146 55.964386,249.414612 54.632706,248.206726 
	C56.105232,247.163651 57.521069,245.330429 59.060520,245.219971 
	C64.514229,244.828644 70.010170,245.025833 75.986847,245.000000 
z"/>
<path fill="#231F20" opacity="1.000000" stroke="none" 
	d="
M414.249512,90.250504 
	C411.619446,92.821304 409.427917,95.399963 406.770355,97.340240 
	C405.648834,98.159042 402.893555,98.321404 402.061371,97.534218 
	C401.129333,96.652634 400.729584,93.600121 401.485046,92.797363 
	C407.501648,86.404060 413.755280,80.220703 420.206970,74.266373 
	C421.035034,73.502144 423.417908,74.422554 425.080505,74.562561 
	C424.922699,76.262337 425.392914,78.484200 424.492828,79.566940 
	C421.422028,83.261055 417.868805,86.554176 414.249512,90.250504 
z"/>
<path fill="#231F20" opacity="1.000000" stroke="none" 
	d="
M175.215607,64.788940 
	C176.535019,66.941887 178.121399,68.679291 178.613922,70.685272 
	C179.039886,72.420189 178.223602,74.460121 177.956451,76.365219 
	C176.077316,75.700890 173.547501,75.579964 172.448578,74.264069 
	C169.803589,71.096863 167.813309,67.379745 165.589020,63.865417 
	C164.076401,61.475533 162.604385,59.059692 161.133224,56.643883 
	C159.810913,54.472523 158.158768,52.068668 161.072815,50.108875 
	C164.110641,48.065823 166.106155,50.376106 167.615646,52.630692 
	C170.205795,56.499352 172.556458,60.528343 175.215607,64.788940 
z"/>
<path fill="#231F20" opacity="1.000000" stroke="none" 
	d="
M118.373352,114.497101 
	C120.024979,115.024956 121.621819,115.330811 122.609489,116.274323 
	C127.415504,120.865501 132.277328,125.437843 136.617905,130.451050 
	C137.826691,131.847153 137.322479,134.726410 137.604126,136.925247 
	C135.523346,136.546494 132.834167,136.860718 131.471329,135.664230 
	C126.610756,131.396896 122.117302,126.695587 117.654953,121.997032 
	C115.350815,119.570923 114.335747,116.856651 118.373352,114.497101 
z"/>
<path fill="#231F20" opacity="1.000000" stroke="none" 
	d="
M96.274170,313.315002 
	C93.251587,314.786804 90.653847,316.467743 87.810959,317.210876 
	C86.297752,317.606445 84.360260,316.378967 82.614265,315.884094 
	C83.283447,314.199127 83.468735,311.720673 84.705505,310.966400 
	C90.087456,307.684174 95.663971,304.651855 101.423950,302.103149 
	C103.038605,301.388672 106.535248,301.912415 107.399345,303.126923 
	C109.367455,305.893127 106.675919,307.490387 104.431870,308.756134 
	C101.826149,310.225891 99.209160,311.675690 96.274170,313.315002 
z"/>
<path fill="#231F20" opacity="1.000000" stroke="none" 
	d="
M380.030151,380.729736 
	C377.914368,380.821411 375.365417,381.373596 374.191772,380.349579 
	C369.576263,376.322388 365.183380,371.980560 361.183258,367.345276 
	C360.040466,366.020996 360.502228,363.311981 360.228241,361.237946 
	C362.195190,361.454681 364.791077,360.949066 366.017181,362.016663 
	C370.633148,366.035645 374.964783,370.423309 379.031708,375.002594 
	C380.111877,376.218811 379.865936,378.612793 380.030151,380.729736 
z"/>
<path fill="#231F20" opacity="1.000000" stroke="none" 
	d="
M246.110413,66.540436 
	C247.411331,64.860764 248.675217,63.616749 249.939102,62.372734 
	C250.940887,63.859604 252.735062,65.309044 252.807373,66.839821 
	C253.121262,73.484192 253.122879,80.162125 252.778549,86.804039 
	C252.703156,88.258522 250.744598,89.615387 249.653305,91.017212 
	C248.477280,89.662163 246.365387,88.360222 246.284943,86.942978 
	C245.908142,80.304741 246.090652,73.634743 246.110413,66.540436 
z"/>
<path fill="#231F20" opacity="1.000000" stroke="none" 
	d="
M316.691315,93.651260 
	C313.842926,98.184494 311.391602,102.563087 308.389618,106.524345 
	C307.333374,107.918083 304.927734,108.289200 303.138245,109.127243 
	C302.790009,107.082748 301.526611,104.594276 302.263214,103.076141 
	C304.573517,98.314331 307.360809,93.710312 310.541412,89.479767 
	C311.858612,87.727730 315.273590,85.618523 316.637573,86.208359 
	C320.333893,87.806801 318.224304,90.842873 316.691315,93.651260 
z"/>
<path fill="#231F20" opacity="1.000000" stroke="none" 
	d="
M337.964111,59.938183 
	C335.746857,63.474575 333.996918,66.946251 331.528259,69.795151 
	C330.359711,71.143730 327.816406,71.301079 325.895966,71.998123 
	C325.684662,69.924446 324.617676,67.406387 325.420929,65.859589 
	C327.931183,61.025848 330.906189,56.372490 334.233795,52.060284 
	C335.271301,50.715771 338.002197,50.677986 339.957916,50.042019 
	C340.030457,52.095238 340.355835,54.183109 340.080963,56.188721 
	C339.915253,57.397919 338.816223,58.479214 337.964111,59.938183 
z"/>
<path fill="#231F20" opacity="1.000000" stroke="none" 
	d="
M193.387299,93.625473 
	C195.403290,96.885818 197.643448,99.679810 198.863647,102.864586 
	C199.512482,104.558128 198.394470,106.928596 198.073990,108.993515 
	C196.326843,108.215187 193.990860,107.899002 192.946884,106.568810 
	C190.206512,103.077095 187.657516,99.317154 185.786057,95.311882 
	C184.867157,93.345291 184.626968,89.479691 185.813965,88.424507 
	C188.713715,85.846779 190.241684,89.257507 191.808182,91.263252 
	C192.315216,91.912437 192.730255,92.633446 193.387299,93.625473 
z"/>
<path fill="#231F20" opacity="1.000000" stroke="none" 
	d="
M409.524536,307.500916 
	C410.228973,309.639862 410.638733,311.558411 411.048462,313.476929 
	C409.213684,313.560059 407.153992,314.220490 405.589050,313.610931 
	C401.885406,312.168182 398.208984,310.422791 394.954315,308.173553 
	C393.632568,307.260101 393.435333,304.719482 392.726440,302.919189 
	C394.506622,302.518066 396.570435,301.339569 398.012238,301.865723 
	C401.893311,303.281921 405.508911,305.425629 409.524536,307.500916 
z"/>
<path fill="#231F20" opacity="1.000000" stroke="none" 
	d="
M450.707520,160.596985 
	C455.212097,157.997055 459.492645,155.525711 464.002808,153.588974 
	C464.948486,153.182877 467.449646,154.421127 467.937866,155.492401 
	C468.412476,156.533661 467.663757,159.102386 466.685333,159.663788 
	C462.959900,161.801315 459.045319,163.783554 454.963318,165.065567 
	C452.122650,165.957733 450.148804,164.309113 450.707520,160.596985 
z"/>
<path fill="#231F20" opacity="1.000000" stroke="none" 
	d="
M137.202209,360.809265 
	C137.440475,365.114960 131.579269,372.916168 127.976906,372.849854 
	C126.536362,372.823334 125.134872,370.674896 123.715607,369.492310 
	C127.277740,366.098694 130.800049,362.660187 134.478546,359.397797 
	C134.769012,359.140198 136.144760,360.106262 137.202209,360.809265 
z"/>
<path fill="#000000" opacity="1.000000" stroke="none" 
	d="
M213.733063,187.710571 
	C210.999512,191.594940 208.260605,194.525192 203.585388,195.790512 
	C201.711533,196.297638 199.718140,199.873093 199.586853,202.155899 
	C199.488556,203.864868 202.098831,206.972717 203.839127,207.235901 
	C206.114380,207.579987 209.381927,206.380157 211.039963,204.686676 
	C213.995300,201.668167 215.964172,197.707336 218.520248,194.270477 
	C231.138367,177.304382 233.226837,159.113297 225.320541,139.561401 
	C224.441711,137.388153 223.887283,134.087067 224.942520,132.429550 
	C225.860977,130.986862 229.846130,130.012726 231.438721,130.836716 
	C233.729202,132.021759 235.474670,134.831802 236.689987,137.320724 
	C237.488556,138.956192 236.991196,141.248184 236.991562,143.246201 
	C237.000748,193.071548 237.005157,242.896881 236.978622,292.722229 
	C236.977432,294.956085 236.677887,297.189819 236.428360,300.661133 
	C229.930786,296.204071 225.419708,291.583832 222.354904,285.624451 
	C218.392914,277.920502 214.667679,270.094391 210.678253,262.405029 
	C205.794006,252.990997 199.502045,244.703705 190.980331,238.192963 
	C189.188843,236.824249 187.696136,234.913437 186.465805,232.995773 
	C184.502747,229.936005 181.706116,228.052185 178.572037,229.782166 
	C176.547226,230.899857 174.736191,233.873672 174.402573,236.237686 
	C173.917236,239.676804 176.697632,241.222382 180.011765,241.992249 
	C189.969727,244.305420 195.457596,252.159164 200.301285,260.020264 
	C205.698792,268.780182 209.886948,278.279968 214.715378,287.397369 
	C219.224930,295.912689 224.951233,303.279907 233.661331,308.081543 
	C235.287231,308.977844 236.780106,311.733398 236.809113,313.653961 
	C237.053223,329.813843 237.056320,345.980316 236.877777,362.142029 
	C236.812424,368.057587 232.518433,371.714264 226.922958,370.043640 
	C219.186066,367.733643 211.738571,364.433380 204.229095,361.403595 
	C202.999268,360.907410 202.087799,359.622192 201.276993,357.337280 
	C203.766647,357.119110 206.264740,356.656219 208.743896,356.741943 
	C212.195038,356.861237 215.662079,356.315155 216.345856,352.713867 
	C216.782990,350.411560 215.766617,346.871002 214.080856,345.343842 
	C211.252197,342.781281 207.710846,344.002838 205.242783,346.780823 
	C201.614059,350.865265 196.817245,350.527740 192.263748,350.174652 
	C167.742920,348.273315 145.405106,326.923859 141.054703,301.956787 
	C138.859772,289.360107 140.466843,277.410980 145.705307,265.901245 
	C147.119492,262.794037 149.194992,259.987823 151.368454,256.376312 
	C153.773438,258.678711 155.443405,260.433777 157.274002,262.001251 
	C163.309265,267.169128 169.221176,272.514191 175.593948,277.232727 
	C177.310883,278.503998 181.099854,278.778015 182.834396,277.712982 
	C184.537369,276.667328 185.790604,273.189270 185.461227,271.053131 
	C185.180496,269.232391 182.339462,266.399139 180.685547,266.436340 
	C172.714844,266.615570 167.556198,261.544952 162.658554,256.883148 
	C146.590454,241.588776 139.976501,219.824966 148.970825,198.548584 
	C156.403458,180.966446 170.559555,172.145264 188.386215,168.159729 
	C190.187347,167.757050 192.355804,168.310730 194.194748,168.909286 
	C197.830475,170.092651 201.259277,169.666229 202.790161,166.225204 
	C203.656754,164.277344 203.235565,159.978897 201.955536,159.243454 
	C199.666809,157.928421 196.153336,157.857880 193.397720,158.436996 
	C188.459808,159.474747 183.704193,161.379776 177.604431,163.327118 
	C178.293213,160.307770 178.411911,158.551025 179.083221,157.039749 
	C184.544556,144.744995 199.195480,136.600555 212.569016,138.046097 
	C217.317902,138.559387 218.425629,142.221024 219.492279,145.571045 
	C224.192017,160.331467 223.207367,174.457169 213.733063,187.710571 
z"/>
<path fill="#000000" opacity="1.000000" stroke="none" 
	d="
M281.407013,277.422089 
	C277.075714,286.277863 272.722015,294.642578 263.640686,299.938293 
	C263.186646,298.483276 262.576721,297.443115 262.579773,296.404755 
	C262.655060,270.690948 262.941803,244.976974 262.882202,219.263748 
	C262.823730,194.046631 262.384674,168.830566 262.228912,143.613312 
	C262.210693,140.667526 262.516632,137.584595 263.406586,134.799896 
	C264.748871,130.599747 268.217163,129.432510 272.257568,130.502563 
	C276.203247,131.547531 276.985352,133.953445 275.178925,137.722076 
	C269.088867,150.427628 267.979645,163.760269 272.220093,177.095520 
	C274.145874,183.151581 277.809235,188.706207 281.051758,194.274399 
	C283.198853,197.961487 285.689148,201.565765 288.630035,204.626526 
	C290.212097,206.273041 293.233337,207.701126 295.298187,207.361420 
	C297.039612,207.074951 299.446991,204.151535 299.541840,202.292404 
	C299.651703,200.137634 298.002808,196.389923 296.347473,195.891663 
	C285.367279,192.586472 282.625641,182.893387 279.223785,174.126846 
	C275.105682,163.514603 276.845551,152.760284 281.491150,142.581528 
	C282.324738,140.755066 284.508667,138.545074 286.302307,138.312775 
	C302.445892,136.222153 315.827057,145.459518 321.566711,159.548981 
	C321.844086,160.229858 321.602356,161.122208 321.602356,163.213531 
	C316.321777,161.503876 311.443848,160.228058 306.822876,158.327499 
	C303.441406,156.936691 299.933777,156.048645 297.767609,159.103821 
	C296.449188,160.963318 296.259552,164.710770 297.231079,166.853943 
	C298.727417,170.154831 302.079865,170.108841 305.485107,168.818726 
	C307.404572,168.091507 309.801239,167.776108 311.786194,168.198944 
	C334.911652,173.125427 351.639130,188.500595 354.029633,213.104843 
	C356.205078,235.495697 345.484711,251.365067 328.138214,263.678528 
	C325.891724,265.273224 322.611115,265.653534 319.733978,266.055359 
	C316.215790,266.546692 313.745880,268.517914 313.776917,271.662598 
	C313.798553,273.856293 315.603210,277.209747 317.421234,277.894165 
	C319.446686,278.656647 322.939545,277.698273 324.835327,276.241699 
	C332.048157,270.699799 338.864594,264.643005 345.849792,258.803284 
	C348.432343,256.644287 350.098145,258.542114 350.896118,260.547913 
	C353.710785,267.622742 357.460968,274.631287 358.591309,282.011871 
	C361.744507,302.600067 355.626343,320.777557 340.285126,334.970123 
	C329.544006,344.906982 316.930481,351.702911 301.468262,349.900940 
	C298.897644,349.601318 296.139130,348.226196 294.114929,346.561005 
	C291.141785,344.115112 287.982483,342.961700 285.172424,345.464813 
	C283.608765,346.857605 282.653870,350.248596 283.141449,352.338531 
	C283.993011,355.988739 287.105988,357.166138 291.016296,356.612732 
	C293.358398,356.281342 295.836731,356.913086 298.253845,357.111908 
	C298.444061,357.600708 298.634277,358.089508 298.824493,358.578308 
	C296.137390,360.510986 293.690979,363.032990 290.711487,364.249939 
	C285.040680,366.566162 279.157501,368.537964 273.191528,369.908783 
	C266.701904,371.399963 262.568573,368.235809 262.489960,361.630432 
	C262.298401,345.534882 262.487488,329.433014 262.729523,313.336823 
	C262.753113,311.765015 263.793488,309.497955 265.062012,308.764435 
	C279.056335,300.672577 285.900970,287.235504 292.067444,273.262695 
	C296.689728,262.788910 302.416382,253.059189 311.620941,245.956177 
	C314.115906,244.030853 317.651489,243.504395 320.347260,241.772217 
	C322.356964,240.480865 324.955383,238.396317 325.145111,236.455215 
	C325.340851,234.452530 323.410065,231.344452 321.533020,230.308868 
	C319.909882,229.413330 316.336578,229.937820 314.878632,231.238922 
	C309.723175,235.839874 305.178345,241.116608 300.268066,246.002563 
	C291.417877,254.808960 287.086945,266.294830 281.407013,277.422089 
z"/>
<path fill="#000000" opacity="1.000000" stroke="none" 
	d="
M236.764130,437.185516 
	C235.727722,434.818817 234.934464,432.719055 234.141205,430.619263 
	C236.270447,430.080566 238.388443,429.137115 240.531006,429.077545 
	C247.498306,428.883911 254.475922,428.933258 261.446991,429.047028 
	C266.078003,429.122589 266.787415,430.376556 264.679504,434.529663 
	C259.416016,444.899963 245.267776,447.879211 236.764130,437.185516 
z"/>
</svg>