<svg xmlns="http://www.w3.org/2000/svg" xmlns:xlink="http://www.w3.org/1999/xlink" width="500" zoomAndPan="magnify"
    viewBox="0 0 375 374.999991" height="500" preserveAspectRatio="xMidYMid meet" version="1.0">
    <defs>
        <g />
        <clipPath id="076f59628d">
            <path
                d="M 73.292969 71.667969 L 301.726562 71.667969 L 301.726562 303.71875 L 73.292969 303.71875 Z M 73.292969 71.667969 "
                clip-rule="nonzero" />
        </clipPath>
        <clipPath id="6d2e9699f7">
            <path
                d="M 181.699219 235.214844 L 194.378906 235.214844 L 194.378906 242.191406 L 181.699219 242.191406 Z M 181.699219 235.214844 "
                clip-rule="nonzero" />
        </clipPath>
        <clipPath id="fb2aafbbf2">
            <path d="M 187 124.363281 L 189 124.363281 L 189 132 L 187 132 Z M 187 124.363281 " clip-rule="nonzero" />
        </clipPath>
        <clipPath id="a3c11a1026">
            <path
                d="M 242.453125 188.597656 L 252.90625 188.597656 L 252.90625 190.4375 L 242.453125 190.4375 Z M 242.453125 188.597656 "
                clip-rule="nonzero" />
        </clipPath>
        <clipPath id="02ae718f2e">
            <path d="M 122.789062 188 L 133 188 L 133 190 L 122.789062 190 Z M 122.789062 188 " clip-rule="nonzero" />
        </clipPath>
    </defs>
    <g clip-path="url(#076f59628d)">
        <path fill="#423b32"
            d="M 187.628906 303.859375 C 123.546875 303.859375 71.519531 251.832031 71.519531 187.761719 C 71.519531 123.6875 123.546875 71.660156 187.628906 71.660156 C 251.699219 71.660156 303.71875 123.6875 303.71875 187.761719 C 303.71875 251.832031 251.699219 303.859375 187.628906 303.859375 Z M 187.628906 301.34375 C 250.308594 301.34375 301.203125 250.449219 301.203125 187.761719 C 301.203125 125.070312 250.308594 74.175781 187.628906 74.175781 C 124.9375 74.175781 74.035156 125.070312 74.035156 187.761719 C 74.035156 250.449219 124.9375 301.34375 187.628906 301.34375 Z M 258.8125 187.761719 C 258.8125 189.511719 257.386719 190.9375 255.632812 190.9375 C 253.890625 190.9375 252.464844 189.511719 252.464844 187.761719 C 252.464844 186.007812 253.890625 184.589844 255.632812 184.589844 C 257.386719 184.589844 258.8125 186.007812 258.8125 187.761719 Z M 122.664062 158.484375 C 122.378906 159.113281 121.640625 159.390625 121.003906 159.105469 C 120.375 158.820312 120.089844 158.074219 120.375 157.441406 C 131.953125 131.839844 157.722656 114.007812 187.628906 114.007812 C 217.523438 114.007812 243.296875 131.839844 254.871094 157.441406 C 255.15625 158.074219 254.871094 158.820312 254.242188 159.105469 C 253.605469 159.390625 252.867188 159.113281 252.574219 158.484375 C 241.398438 133.746094 216.507812 116.523438 187.628906 116.523438 C 158.738281 116.523438 133.847656 133.746094 122.664062 158.484375 Z M 252.574219 217.042969 C 252.867188 216.40625 253.605469 216.128906 254.242188 216.414062 C 254.871094 216.699219 255.15625 217.449219 254.871094 218.078125 C 243.296875 243.679688 217.523438 261.511719 187.628906 261.511719 C 157.722656 261.511719 131.953125 243.679688 120.375 218.078125 C 120.089844 217.449219 120.375 216.699219 121.003906 216.414062 C 121.640625 216.128906 122.378906 216.40625 122.664062 217.042969 C 133.847656 241.773438 158.738281 258.996094 187.628906 258.996094 C 216.507812 258.996094 241.398438 241.773438 252.574219 217.042969 Z M 122.78125 187.761719 C 122.78125 189.511719 121.355469 190.9375 119.613281 190.9375 C 117.851562 190.9375 116.433594 189.511719 116.433594 187.761719 C 116.433594 186.007812 117.851562 184.589844 119.613281 184.589844 C 121.355469 184.589844 122.78125 186.007812 122.78125 187.761719 Z M 122.78125 187.761719 "
            fill-opacity="1" fill-rule="evenodd" />
    </g>
    <path fill="#231f20"
        d="M 177.511719 160.03125 C 172.777344 160.03125 168.808594 163.722656 168.472656 168.433594 L 168.441406 168.925781 L 167.992188 169.144531 C 163.335938 171.40625 160.445312 176.019531 160.445312 181.183594 C 160.445312 183.9375 161.277344 186.582031 162.855469 188.835938 L 163.0625 189.132812 L 162.996094 189.484375 C 162.972656 189.605469 162.953125 189.730469 162.9375 189.851562 L 162.90625 190.097656 L 162.75 190.285156 C 160.421875 193.109375 159.140625 196.683594 159.140625 200.351562 C 159.140625 208.15625 164.964844 214.898438 172.683594 216.03125 L 173.023438 216.082031 L 173.234375 216.351562 C 175.324219 219 178.605469 220.726562 182.472656 221.214844 C 183.082031 221.292969 183.675781 221.109375 184.140625 220.703125 C 184.601562 220.292969 184.867188 219.707031 184.867188 219.09375 L 184.867188 160.148438 C 184.867188 158.761719 183.855469 158.136719 182.992188 158.023438 C 182.136719 157.914062 181.011719 158.253906 180.660156 159.578125 L 180.433594 160.472656 L 179.609375 160.277344 C 178.921875 160.113281 178.214844 160.03125 177.511719 160.03125 Z M 182.734375 222.949219 C 182.574219 222.949219 182.414062 222.9375 182.253906 222.917969 C 178.066406 222.390625 174.476562 220.53125 172.101562 217.679688 C 168.09375 217.011719 164.425781 214.960938 161.742188 211.882812 C 158.957031 208.6875 157.421875 204.59375 157.421875 200.351562 C 157.421875 196.402344 158.761719 192.550781 161.207031 189.464844 C 159.582031 187 158.726562 184.144531 158.726562 181.183594 C 158.726562 178.296875 159.546875 175.492188 161.09375 173.070312 C 162.515625 170.851562 164.480469 169.042969 166.804688 167.820312 C 167.433594 162.453125 172.046875 158.316406 177.511719 158.316406 C 178.089844 158.316406 178.671875 158.363281 179.246094 158.457031 C 179.945312 156.957031 181.488281 156.097656 183.214844 156.324219 C 184.839844 156.535156 186.585938 157.820312 186.585938 160.148438 L 186.585938 219.09375 C 186.585938 220.199219 186.109375 221.257812 185.277344 221.988281 C 184.570312 222.609375 183.664062 222.949219 182.734375 222.949219 "
        fill-opacity="1" fill-rule="nonzero" />
    <path fill="#231f20"
        d="M 173.472656 217.710938 C 172.972656 217.710938 172.472656 217.675781 171.980469 217.609375 L 172.214844 215.910156 C 174.035156 216.160156 175.917969 215.859375 177.519531 215.054688 L 178.289062 216.589844 C 176.816406 217.328125 175.148438 217.710938 173.472656 217.710938 "
        fill-opacity="1" fill-rule="nonzero" />
    <path fill="#231f20"
        d="M 178.65625 217.234375 C 179.421875 216.777344 179.671875 215.785156 179.214844 215.019531 C 178.753906 214.257812 177.761719 214.007812 176.996094 214.464844 C 176.230469 214.921875 175.980469 215.914062 176.441406 216.679688 C 176.898438 217.441406 177.890625 217.691406 178.65625 217.234375 "
        fill-opacity="1" fill-rule="nonzero" />
    <path fill="#231f20"
        d="M 169.425781 196.28125 C 166 194.839844 163.160156 192.480469 161.210938 189.453125 L 162.65625 188.523438 C 164.417969 191.257812 166.988281 193.394531 170.09375 194.699219 L 169.425781 196.28125 "
        fill-opacity="1" fill-rule="nonzero" />
    <path fill="#231f20"
        d="M 169.117188 196.96875 C 169.953125 197.28125 170.882812 196.859375 171.199219 196.023438 C 171.511719 195.191406 171.089844 194.261719 170.253906 193.945312 C 169.417969 193.632812 168.488281 194.054688 168.171875 194.890625 C 167.859375 195.722656 168.28125 196.652344 169.117188 196.96875 "
        fill-opacity="1" fill-rule="nonzero" />
    <path fill="#231f20"
        d="M 165.3125 170.863281 L 164.285156 169.488281 C 167.171875 167.332031 170.664062 166.113281 174.375 165.960938 L 174.445312 167.675781 C 171.082031 167.816406 167.921875 168.914062 165.3125 170.863281 "
        fill-opacity="1" fill-rule="nonzero" />
    <path fill="#231f20"
        d="M 174.332031 168.4375 C 175.222656 168.4375 175.945312 167.714844 175.945312 166.824219 C 175.941406 165.933594 175.21875 165.210938 174.328125 165.210938 C 173.433594 165.214844 172.710938 165.9375 172.714844 166.828125 C 172.714844 167.71875 173.441406 168.441406 174.332031 168.4375 "
        fill-opacity="1" fill-rule="nonzero" />
    <path fill="#231f20"
        d="M 176.921875 177.625 L 175.917969 176.230469 C 178.339844 174.5 180.09375 171.867188 180.738281 169.011719 C 181.492188 165.660156 180.730469 162.003906 178.707031 159.226562 L 180.09375 158.214844 C 182.410156 161.386719 183.273438 165.5625 182.414062 169.386719 C 181.679688 172.652344 179.675781 175.652344 176.921875 177.625 "
        fill-opacity="1" fill-rule="nonzero" />
    <path fill="#231f20"
        d="M 175.617188 175.515625 C 174.863281 175.992188 174.640625 176.992188 175.121094 177.742188 C 175.597656 178.492188 176.597656 178.714844 177.351562 178.238281 C 178.105469 177.757812 178.324219 176.761719 177.847656 176.011719 C 177.367188 175.257812 176.367188 175.039062 175.617188 175.515625 "
        fill-opacity="1" fill-rule="nonzero" />
    <path fill="#231f20"
        d="M 185.488281 205.277344 C 183.003906 204.5625 180.765625 202.546875 179.019531 199.445312 C 178.417969 198.375 177.898438 197.253906 177.394531 196.167969 C 176.730469 194.738281 176.105469 193.390625 175.300781 192.125 C 173.832031 189.824219 171.789062 187.890625 169.390625 186.539062 L 170.234375 185.046875 C 172.878906 186.535156 175.132812 188.664062 176.75 191.203125 C 177.617188 192.566406 178.296875 194.03125 178.953125 195.445312 C 179.441406 196.5 179.949219 197.589844 180.519531 198.605469 C 181.578125 200.488281 183.382812 202.886719 185.964844 203.628906 L 185.488281 205.277344 "
        fill-opacity="1" fill-rule="nonzero" />
    <path fill="#231f20"
        d="M 169.136719 187.273438 C 168.34375 186.863281 168.03125 185.890625 168.441406 185.101562 C 168.851562 184.308594 169.828125 184 170.621094 184.40625 C 171.414062 184.816406 171.722656 185.789062 171.3125 186.582031 C 170.902344 187.371094 169.929688 187.683594 169.136719 187.273438 "
        fill-opacity="1" fill-rule="nonzero" />
    <path fill="#231f20"
        d="M 193.441406 158.003906 C 193.339844 158.003906 193.234375 158.011719 193.136719 158.023438 C 192.273438 158.136719 191.261719 158.761719 191.261719 160.148438 L 191.261719 219.09375 C 191.261719 219.707031 191.527344 220.292969 191.992188 220.703125 C 192.457031 221.109375 193.046875 221.292969 193.660156 221.214844 C 197.523438 220.726562 200.804688 219 202.894531 216.351562 L 203.105469 216.082031 L 203.445312 216.03125 C 211.167969 214.898438 216.988281 208.15625 216.988281 200.351562 C 216.988281 196.683594 215.707031 193.109375 213.378906 190.285156 L 213.222656 190.097656 L 213.191406 189.851562 C 213.175781 189.730469 213.15625 189.605469 213.132812 189.484375 L 213.066406 189.128906 L 213.273438 188.835938 C 214.851562 186.582031 215.683594 183.9375 215.683594 181.183594 C 215.683594 176.019531 212.792969 171.40625 208.136719 169.144531 L 207.691406 168.925781 L 207.65625 168.433594 C 207.320312 163.722656 203.351562 160.03125 198.617188 160.03125 C 197.917969 160.03125 197.210938 160.113281 196.519531 160.277344 L 195.695312 160.472656 L 195.46875 159.578125 C 195.15625 158.40625 194.242188 158.003906 193.441406 158.003906 Z M 193.394531 222.949219 C 192.464844 222.949219 191.5625 222.609375 190.855469 221.988281 C 190.019531 221.257812 189.542969 220.199219 189.542969 219.09375 L 189.542969 160.148438 C 189.542969 157.820312 191.292969 156.535156 192.914062 156.324219 C 194.640625 156.097656 196.183594 156.957031 196.882812 158.457031 C 197.457031 158.363281 198.039062 158.316406 198.617188 158.316406 C 204.085938 158.316406 208.695312 162.453125 209.324219 167.820312 C 211.648438 169.042969 213.617188 170.851562 215.035156 173.070312 C 216.585938 175.492188 217.402344 178.296875 217.402344 181.183594 C 217.402344 184.144531 216.546875 187 214.925781 189.464844 C 217.367188 192.550781 218.707031 196.402344 218.707031 200.351562 C 218.707031 204.59375 217.175781 208.6875 214.386719 211.882812 C 211.703125 214.960938 208.035156 217.011719 204.03125 217.679688 C 201.65625 220.53125 198.0625 222.390625 193.875 222.917969 C 193.714844 222.9375 193.554688 222.949219 193.394531 222.949219 "
        fill-opacity="1" fill-rule="nonzero" />
    <path fill="#231f20"
        d="M 202.65625 217.710938 C 200.980469 217.710938 199.3125 217.328125 197.839844 216.589844 L 198.613281 215.054688 C 200.214844 215.859375 202.097656 216.160156 203.914062 215.910156 L 204.152344 217.609375 C 203.65625 217.675781 203.15625 217.710938 202.65625 217.710938 "
        fill-opacity="1" fill-rule="nonzero" />
    <path fill="#231f20"
        d="M 199.132812 214.464844 C 198.367188 214.007812 197.375 214.257812 196.917969 215.019531 C 196.457031 215.785156 196.707031 216.777344 197.472656 217.234375 C 198.238281 217.691406 199.230469 217.441406 199.691406 216.679688 C 200.148438 215.914062 199.898438 214.921875 199.132812 214.464844 "
        fill-opacity="1" fill-rule="nonzero" />
    <path fill="#231f20"
        d="M 206.703125 196.28125 L 206.035156 194.699219 C 209.140625 193.394531 211.710938 191.257812 213.472656 188.523438 L 214.917969 189.453125 C 212.96875 192.480469 210.128906 194.839844 206.703125 196.28125 "
        fill-opacity="1" fill-rule="nonzero" />
    <path fill="#231f20"
        d="M 205.875 193.945312 C 205.039062 194.261719 204.617188 195.191406 204.933594 196.023438 C 205.246094 196.859375 206.175781 197.28125 207.011719 196.96875 C 207.847656 196.652344 208.269531 195.722656 207.957031 194.890625 C 207.644531 194.054688 206.710938 193.632812 205.875 193.945312 "
        fill-opacity="1" fill-rule="nonzero" />
    <path fill="#231f20"
        d="M 210.816406 170.863281 C 208.207031 168.914062 205.050781 167.816406 201.683594 167.675781 L 201.753906 165.960938 C 205.46875 166.113281 208.957031 167.332031 211.84375 169.488281 L 210.816406 170.863281 "
        fill-opacity="1" fill-rule="nonzero" />
    <path fill="#231f20"
        d="M 201.804688 165.210938 C 200.910156 165.210938 200.1875 165.933594 200.183594 166.824219 C 200.183594 167.714844 200.90625 168.4375 201.796875 168.4375 C 202.691406 168.441406 203.414062 167.71875 203.417969 166.828125 C 203.417969 165.9375 202.695312 165.214844 201.804688 165.210938 "
        fill-opacity="1" fill-rule="nonzero" />
    <path fill="#231f20"
        d="M 199.210938 177.625 C 196.453125 175.652344 194.449219 172.652344 193.714844 169.386719 C 192.855469 165.5625 193.722656 161.386719 196.035156 158.214844 L 197.425781 159.226562 C 195.398438 162.003906 194.640625 165.660156 195.394531 169.011719 C 196.035156 171.867188 197.792969 174.5 200.210938 176.230469 L 199.210938 177.625 "
        fill-opacity="1" fill-rule="nonzero" />
    <path fill="#231f20"
        d="M 198.78125 178.238281 C 199.53125 178.714844 200.53125 178.492188 201.011719 177.742188 C 201.488281 176.992188 201.265625 175.992188 200.511719 175.515625 C 199.761719 175.039062 198.761719 175.257812 198.28125 176.011719 C 197.804688 176.761719 198.027344 177.757812 198.78125 178.238281 "
        fill-opacity="1" fill-rule="nonzero" />
    <path fill="#231f20"
        d="M 190.640625 205.277344 L 190.164062 203.628906 C 192.746094 202.886719 194.550781 200.488281 195.609375 198.605469 C 196.179688 197.589844 196.6875 196.5 197.175781 195.445312 C 197.832031 194.03125 198.511719 192.566406 199.378906 191.203125 C 200.996094 188.664062 203.25 186.535156 205.894531 185.046875 L 206.738281 186.539062 C 204.339844 187.890625 202.296875 189.824219 200.828125 192.125 C 200.023438 193.390625 199.398438 194.738281 198.734375 196.167969 C 198.230469 197.253906 197.710938 198.375 197.109375 199.445312 C 195.363281 202.546875 193.128906 204.5625 190.640625 205.277344 "
        fill-opacity="1" fill-rule="nonzero" />
    <path fill="#231f20"
        d="M 205.507812 184.40625 C 206.300781 184 207.277344 184.308594 207.6875 185.101562 C 208.097656 185.890625 207.785156 186.863281 206.992188 187.273438 C 206.203125 187.683594 205.226562 187.371094 204.816406 186.582031 C 204.40625 185.789062 204.71875 184.816406 205.507812 184.40625 "
        fill-opacity="1" fill-rule="nonzero" />
    <path fill="#231f20"
        d="M 195.929688 226.121094 L 180.199219 226.121094 C 179.726562 226.121094 179.339844 225.734375 179.339844 225.261719 C 179.339844 224.789062 179.726562 224.402344 180.199219 224.402344 L 195.929688 224.402344 C 196.402344 224.402344 196.789062 224.789062 196.789062 225.261719 C 196.789062 225.734375 196.402344 226.121094 195.929688 226.121094 "
        fill-opacity="1" fill-rule="nonzero" />
    <path fill="#231f20"
        d="M 195.929688 229.5 L 180.199219 229.5 C 179.726562 229.5 179.339844 229.117188 179.339844 228.644531 C 179.339844 228.167969 179.726562 227.785156 180.199219 227.785156 L 195.929688 227.785156 C 196.402344 227.785156 196.789062 228.167969 196.789062 228.644531 C 196.789062 229.117188 196.402344 229.5 195.929688 229.5 "
        fill-opacity="1" fill-rule="nonzero" />
    <path fill="#231f20"
        d="M 195.929688 232.882812 L 180.199219 232.882812 C 179.726562 232.882812 179.339844 232.5 179.339844 232.023438 C 179.339844 231.550781 179.726562 231.167969 180.199219 231.167969 L 195.929688 231.167969 C 196.402344 231.167969 196.789062 231.550781 196.789062 232.023438 C 196.789062 232.5 196.402344 232.882812 195.929688 232.882812 "
        fill-opacity="1" fill-rule="nonzero" />
    <path fill="#231f20"
        d="M 195.929688 236.265625 L 180.199219 236.265625 C 179.726562 236.265625 179.339844 235.882812 179.339844 235.40625 C 179.339844 234.933594 179.726562 234.550781 180.199219 234.550781 L 195.929688 234.550781 C 196.402344 234.550781 196.789062 234.933594 196.789062 235.40625 C 196.789062 235.882812 196.402344 236.265625 195.929688 236.265625 "
        fill-opacity="1" fill-rule="nonzero" />
    <g clip-path="url(#6d2e9699f7)">
        <path fill="#231f20"
            d="M 188.066406 242.191406 C 184.601562 242.191406 181.78125 239.378906 181.78125 235.917969 L 181.78125 235.808594 L 183.5 235.835938 L 183.5 235.917969 C 183.5 238.429688 185.546875 240.476562 188.066406 240.476562 C 190.582031 240.476562 192.628906 238.429688 192.628906 235.917969 C 192.628906 235.773438 192.621094 235.628906 192.609375 235.488281 L 194.320312 235.328125 C 194.339844 235.523438 194.347656 235.722656 194.347656 235.917969 C 194.347656 239.378906 191.53125 242.191406 188.066406 242.191406 "
            fill-opacity="1" fill-rule="nonzero" />
    </g>
    <path fill="#231f20"
        d="M 188.066406 147.964844 C 187.589844 147.964844 187.207031 147.582031 187.207031 147.105469 L 187.207031 141.167969 C 187.207031 140.695312 187.589844 140.3125 188.066406 140.3125 C 188.539062 140.3125 188.925781 140.695312 188.925781 141.167969 L 188.925781 147.105469 C 188.925781 147.582031 188.539062 147.964844 188.066406 147.964844 "
        fill-opacity="1" fill-rule="nonzero" />
    <g clip-path="url(#fb2aafbbf2)">
        <path fill="#231f20"
            d="M 188.066406 131.578125 C 187.589844 131.578125 187.207031 131.195312 187.207031 130.722656 L 187.207031 125.222656 C 187.207031 124.75 187.589844 124.367188 188.066406 124.367188 C 188.539062 124.367188 188.925781 124.75 188.925781 125.222656 L 188.925781 130.722656 C 188.925781 131.195312 188.539062 131.578125 188.066406 131.578125 "
            fill-opacity="1" fill-rule="nonzero" />
    </g>
    <path fill="#231f20"
        d="M 217.902344 160.484375 C 217.679688 160.484375 217.460938 160.398438 217.292969 160.230469 C 216.957031 159.898438 216.957031 159.351562 217.292969 159.019531 L 225.230469 151.089844 C 225.566406 150.757812 226.113281 150.757812 226.449219 151.089844 C 226.785156 151.425781 226.785156 151.96875 226.449219 152.304688 L 218.507812 160.230469 C 218.339844 160.398438 218.121094 160.484375 217.902344 160.484375 "
        fill-opacity="1" fill-rule="nonzero" />
    <path fill="#231f20"
        d="M 228.519531 149.878906 C 228.300781 149.878906 228.082031 149.796875 227.914062 149.628906 C 227.578125 149.292969 227.578125 148.75 227.914062 148.414062 L 232.789062 143.546875 C 233.125 143.210938 233.667969 143.210938 234.003906 143.546875 C 234.339844 143.878906 234.339844 144.425781 234.003906 144.757812 L 229.128906 149.628906 C 228.960938 149.796875 228.738281 149.878906 228.519531 149.878906 "
        fill-opacity="1" fill-rule="nonzero" />
    <path fill="#231f20"
        d="M 237.496094 190.398438 L 230.132812 190.398438 C 229.660156 190.398438 229.273438 190.015625 229.273438 189.542969 C 229.273438 189.066406 229.660156 188.683594 230.132812 188.683594 L 237.496094 188.683594 C 237.96875 188.683594 238.355469 189.066406 238.355469 189.542969 C 238.355469 190.015625 237.96875 190.398438 237.496094 190.398438 "
        fill-opacity="1" fill-rule="nonzero" />
    <g clip-path="url(#a3c11a1026)">
        <path fill="#231f20"
            d="M 252.050781 190.398438 L 243.367188 190.398438 C 242.890625 190.398438 242.503906 190.015625 242.503906 189.542969 C 242.503906 189.066406 242.890625 188.683594 243.367188 188.683594 L 252.050781 188.683594 C 252.523438 188.683594 252.90625 189.066406 252.90625 189.542969 C 252.90625 190.015625 252.523438 190.398438 252.050781 190.398438 "
            fill-opacity="1" fill-rule="nonzero" />
    </g>
    <path fill="#231f20"
        d="M 221.578125 224.167969 C 221.359375 224.167969 221.136719 224.082031 220.96875 223.914062 L 216.988281 219.9375 C 216.652344 219.601562 216.652344 219.058594 216.988281 218.726562 C 217.324219 218.390625 217.867188 218.390625 218.203125 218.726562 L 222.1875 222.703125 C 222.523438 223.035156 222.523438 223.578125 222.1875 223.914062 C 222.019531 224.082031 221.796875 224.167969 221.578125 224.167969 "
        fill-opacity="1" fill-rule="nonzero" />
    <path fill="#231f20"
        d="M 232.484375 235.410156 L 224.414062 227.355469 C 224.078125 227.019531 224.078125 226.476562 224.414062 226.140625 C 224.75 225.804688 225.296875 225.804688 225.632812 226.140625 L 233.699219 234.199219 L 232.484375 235.410156 "
        fill-opacity="1" fill-rule="nonzero" />
    <path fill="#231f20"
        d="M 155.867188 221.808594 C 155.648438 221.808594 155.429688 221.726562 155.261719 221.558594 C 154.925781 221.222656 154.925781 220.679688 155.261719 220.34375 L 157.1875 218.417969 C 157.523438 218.085938 158.070312 218.085938 158.402344 218.417969 C 158.738281 218.753906 158.738281 219.296875 158.402344 219.632812 L 156.476562 221.558594 C 156.308594 221.726562 156.085938 221.808594 155.867188 221.808594 "
        fill-opacity="1" fill-rule="nonzero" />
    <path fill="#231f20"
        d="M 142.300781 235.355469 C 142.078125 235.355469 141.859375 235.273438 141.691406 235.105469 C 141.355469 234.769531 141.355469 234.226562 141.691406 233.890625 L 148.753906 226.84375 C 149.089844 226.507812 149.632812 226.507812 149.96875 226.84375 C 150.304688 227.179688 150.304688 227.722656 149.96875 228.054688 L 142.90625 235.105469 C 142.738281 235.273438 142.519531 235.355469 142.300781 235.355469 "
        fill-opacity="1" fill-rule="nonzero" />
    <path fill="#231f20"
        d="M 145.566406 189.96875 L 137.71875 189.96875 C 137.242188 189.96875 136.855469 189.582031 136.855469 189.109375 C 136.855469 188.636719 137.242188 188.25 137.71875 188.25 L 145.566406 188.25 C 146.039062 188.25 146.425781 188.636719 146.425781 189.109375 C 146.425781 189.582031 146.039062 189.96875 145.566406 189.96875 "
        fill-opacity="1" fill-rule="nonzero" />
    <g clip-path="url(#02ae718f2e)">
        <path fill="#231f20"
            d="M 132.101562 189.96875 L 123.648438 189.96875 C 123.175781 189.96875 122.789062 189.582031 122.789062 189.109375 C 122.789062 188.636719 123.175781 188.25 123.648438 188.25 L 132.101562 188.25 C 132.578125 188.25 132.960938 188.636719 132.960938 189.109375 C 132.960938 189.582031 132.578125 189.96875 132.101562 189.96875 "
            fill-opacity="1" fill-rule="nonzero" />
    </g>
    <path fill="#231f20"
        d="M 158.101562 160.179688 C 157.882812 160.179688 157.664062 160.09375 157.496094 159.925781 L 153.140625 155.582031 C 152.804688 155.246094 152.804688 154.703125 153.140625 154.367188 C 153.476562 154.03125 154.019531 154.03125 154.355469 154.367188 L 158.710938 158.714844 C 159.046875 159.046875 159.046875 159.589844 158.710938 159.925781 C 158.542969 160.09375 158.320312 160.179688 158.101562 160.179688 "
        fill-opacity="1" fill-rule="nonzero" />
    <path fill="#231f20"
        d="M 149.027344 151.117188 C 148.808594 151.117188 148.585938 151.035156 148.421875 150.867188 L 141.996094 144.453125 C 141.664062 144.117188 141.664062 143.574219 141.996094 143.242188 C 142.332031 142.90625 142.878906 142.90625 143.214844 143.242188 L 149.636719 149.652344 C 149.972656 149.988281 149.972656 150.53125 149.636719 150.867188 C 149.46875 151.035156 149.246094 151.117188 149.027344 151.117188 "
        fill-opacity="1" fill-rule="nonzero" />
    <path fill="#231f20"
        d="M 174.148438 152.746094 C 173.863281 152.746094 173.585938 152.605469 173.421875 152.347656 L 170.925781 148.386719 C 170.671875 147.984375 170.792969 147.457031 171.195312 147.203125 C 171.597656 146.949219 172.125 147.070312 172.378906 147.472656 L 174.875 151.429688 C 175.128906 151.832031 175.007812 152.363281 174.605469 152.613281 C 174.464844 152.703125 174.304688 152.746094 174.148438 152.746094 "
        fill-opacity="1" fill-rule="nonzero" />
    <path fill="#231f20"
        d="M 168.792969 144.253906 C 168.507812 144.253906 168.226562 144.109375 168.066406 143.851562 L 164.5625 138.296875 C 164.308594 137.894531 164.429688 137.367188 164.832031 137.113281 C 165.234375 136.859375 165.765625 136.980469 166.015625 137.382812 L 169.519531 142.9375 C 169.773438 143.335938 169.652344 143.867188 169.25 144.121094 C 169.109375 144.210938 168.949219 144.253906 168.792969 144.253906 "
        fill-opacity="1" fill-rule="nonzero" />
    <path fill="#231f20"
        d="M 202.371094 152.746094 C 202.214844 152.746094 202.058594 152.703125 201.914062 152.613281 C 201.515625 152.363281 201.394531 151.832031 201.644531 151.429688 L 204.480469 146.933594 C 204.734375 146.53125 205.265625 146.410156 205.667969 146.664062 C 206.070312 146.917969 206.191406 147.445312 205.9375 147.847656 L 203.101562 152.347656 C 202.9375 152.605469 202.660156 152.746094 202.371094 152.746094 "
        fill-opacity="1" fill-rule="nonzero" />
    <path fill="#231f20"
        d="M 208.457031 143.097656 C 208.300781 143.097656 208.140625 143.054688 208 142.964844 C 207.597656 142.714844 207.476562 142.183594 207.730469 141.78125 L 210.503906 137.382812 C 210.757812 136.980469 211.289062 136.859375 211.6875 137.113281 C 212.089844 137.367188 212.210938 137.894531 211.960938 138.296875 L 209.183594 142.695312 C 209.019531 142.957031 208.742188 143.097656 208.457031 143.097656 "
        fill-opacity="1" fill-rule="nonzero" />
    <path fill="#231f20"
        d="M 149.996094 174.6875 L 142.542969 171.285156 C 142.113281 171.085938 141.921875 170.578125 142.121094 170.148438 C 142.316406 169.714844 142.828125 169.527344 143.257812 169.722656 L 150.710938 173.125 L 149.996094 174.6875 "
        fill-opacity="1" fill-rule="nonzero" />
    <path fill="#231f20"
        d="M 137.789062 169.027344 C 137.671875 169.027344 137.550781 169.003906 137.433594 168.949219 L 130.769531 165.90625 C 130.335938 165.710938 130.148438 165.199219 130.34375 164.769531 C 130.542969 164.339844 131.050781 164.148438 131.484375 164.347656 L 138.148438 167.390625 C 138.578125 167.585938 138.769531 168.097656 138.570312 168.527344 C 138.429688 168.84375 138.117188 169.027344 137.789062 169.027344 "
        fill-opacity="1" fill-rule="nonzero" />
    <path fill="#231f20"
        d="M 225.703125 174.6875 L 224.984375 173.125 L 232.671875 169.617188 C 233.101562 169.421875 233.613281 169.609375 233.8125 170.039062 C 234.007812 170.472656 233.820312 170.980469 233.386719 171.179688 L 225.703125 174.6875 "
        fill-opacity="1" fill-rule="nonzero" />
    <path fill="#231f20"
        d="M 241.5625 167.359375 C 241.238281 167.359375 240.925781 167.171875 240.78125 166.859375 C 240.585938 166.425781 240.773438 165.917969 241.207031 165.71875 L 244.214844 164.347656 C 244.644531 164.148438 245.15625 164.339844 245.351562 164.769531 C 245.550781 165.199219 245.359375 165.710938 244.929688 165.90625 L 241.921875 167.28125 C 241.804688 167.332031 241.683594 167.359375 241.5625 167.359375 "
        fill-opacity="1" fill-rule="nonzero" />
    <path fill="#231f20"
        d="M 144.945312 207.347656 C 144.636719 207.347656 144.339844 207.183594 144.183594 206.890625 C 143.960938 206.472656 144.121094 205.953125 144.539062 205.730469 L 149.644531 203.023438 C 150.0625 202.804688 150.585938 202.960938 150.808594 203.378906 C 151.03125 203.796875 150.871094 204.320312 150.453125 204.539062 L 145.347656 207.246094 C 145.21875 207.316406 145.082031 207.347656 144.945312 207.347656 "
        fill-opacity="1" fill-rule="nonzero" />
    <path fill="#231f20"
        d="M 133.078125 213.753906 L 132.269531 212.238281 L 139.839844 208.222656 C 140.257812 208 140.777344 208.160156 141 208.578125 C 141.222656 209 141.0625 209.519531 140.644531 209.738281 L 133.078125 213.753906 "
        fill-opacity="1" fill-rule="nonzero" />
    <path fill="#231f20"
        d="M 229.765625 206.496094 C 229.628906 206.496094 229.492188 206.460938 229.363281 206.394531 L 225.867188 204.539062 C 225.449219 204.320312 225.289062 203.796875 225.511719 203.378906 C 225.734375 202.960938 226.253906 202.804688 226.671875 203.023438 L 230.171875 204.878906 C 230.589844 205.101562 230.75 205.621094 230.527344 206.039062 C 230.371094 206.328125 230.074219 206.496094 229.765625 206.496094 "
        fill-opacity="1" fill-rule="nonzero" />
    <path fill="#231f20"
        d="M 243.644531 213.851562 C 243.507812 213.851562 243.371094 213.820312 243.242188 213.753906 L 234.800781 209.277344 C 234.378906 209.054688 234.21875 208.535156 234.441406 208.117188 C 234.664062 207.699219 235.1875 207.539062 235.605469 207.761719 L 244.046875 212.238281 C 244.46875 212.457031 244.628906 212.976562 244.40625 213.398438 C 244.25 213.6875 243.953125 213.851562 243.644531 213.851562 "
        fill-opacity="1" fill-rule="nonzero" />
    <g fill="#433b32" fill-opacity="1">
        <g transform="translate(131.598184, 118.450116)">
            <g>
                <path
                    d="M -1.015625 -18.171875 C 1.210938 -19.242188 3.113281 -19.671875 4.6875 -19.453125 C 6.269531 -19.242188 7.488281 -18.25 8.34375 -16.46875 C 9.207031 -14.65625 9.222656 -13.054688 8.390625 -11.671875 C 7.566406 -10.296875 6.023438 -9.066406 3.765625 -7.984375 L 2.703125 -7.484375 L 5.109375 -2.453125 L 1.734375 -0.828125 L -5.34375 -15.625 C -4.6875 -16.132812 -3.957031 -16.613281 -3.15625 -17.0625 C -2.351562 -17.507812 -1.640625 -17.878906 -1.015625 -18.171875 Z M 0.5625 -15.40625 C 0.320312 -15.28125 0.0859375 -15.15625 -0.140625 -15.03125 C -0.378906 -14.90625 -0.582031 -14.796875 -0.75 -14.703125 L 1.328125 -10.359375 L 2.390625 -10.859375 C 3.566406 -11.421875 4.375 -12 4.8125 -12.59375 C 5.257812 -13.195312 5.273438 -13.929688 4.859375 -14.796875 C 4.648438 -15.222656 4.40625 -15.535156 4.125 -15.734375 C 3.84375 -15.941406 3.519531 -16.0625 3.15625 -16.09375 C 2.800781 -16.132812 2.40625 -16.085938 1.96875 -15.953125 C 1.53125 -15.828125 1.0625 -15.644531 0.5625 -15.40625 Z M 0.5625 -15.40625 " />
            </g>
        </g>
    </g>
    <g fill="#433b32" fill-opacity="1">
        <g transform="translate(146.717897, 111.296319)">
            <g>
                <path
                    d="M 1.546875 -18.09375 C 3.929688 -18.820312 5.890625 -18.957031 7.421875 -18.5 C 8.960938 -18.039062 10.003906 -16.914062 10.546875 -15.125 C 10.890625 -14.007812 10.910156 -13.023438 10.609375 -12.171875 C 10.304688 -11.316406 9.742188 -10.546875 8.921875 -9.859375 C 9.359375 -9.554688 9.832031 -9.203125 10.34375 -8.796875 C 10.851562 -8.390625 11.363281 -7.957031 11.875 -7.5 C 12.394531 -7.050781 12.90625 -6.570312 13.40625 -6.0625 C 13.914062 -5.550781 14.398438 -5.050781 14.859375 -4.5625 L 10.84375 -3.328125 C 10.394531 -3.765625 9.9375 -4.203125 9.46875 -4.640625 C 9.007812 -5.085938 8.546875 -5.515625 8.078125 -5.921875 C 7.609375 -6.328125 7.148438 -6.707031 6.703125 -7.0625 C 6.253906 -7.414062 5.820312 -7.734375 5.40625 -8.015625 L 3.640625 -7.484375 L 5.421875 -1.671875 L 1.84375 -0.5625 L -2.96875 -16.25 C -2.25 -16.644531 -1.476562 -17 -0.65625 -17.3125 C 0.15625 -17.625 0.890625 -17.882812 1.546875 -18.09375 Z M 2.6875 -15.109375 C 2.425781 -15.023438 2.191406 -14.945312 1.984375 -14.875 C 1.785156 -14.800781 1.601562 -14.726562 1.4375 -14.65625 L 2.765625 -10.328125 L 3.78125 -10.640625 C 5.125 -11.046875 6.035156 -11.503906 6.515625 -12.015625 C 6.992188 -12.535156 7.109375 -13.207031 6.859375 -14.03125 C 6.617188 -14.800781 6.148438 -15.257812 5.453125 -15.40625 C 4.753906 -15.5625 3.832031 -15.460938 2.6875 -15.109375 Z M 2.6875 -15.109375 " />
            </g>
        </g>
    </g>
    <g fill="#433b32" fill-opacity="1">
        <g transform="translate(163.134014, 106.221886)">
            <g>
                <path
                    d="M 3.90625 -8.953125 C 4.007812 -8.140625 4.203125 -7.421875 4.484375 -6.796875 C 4.773438 -6.171875 5.140625 -5.648438 5.578125 -5.234375 C 6.015625 -4.816406 6.519531 -4.515625 7.09375 -4.328125 C 7.664062 -4.148438 8.300781 -4.109375 9 -4.203125 C 9.6875 -4.296875 10.285156 -4.507812 10.796875 -4.84375 C 11.316406 -5.175781 11.726562 -5.597656 12.03125 -6.109375 C 12.332031 -6.628906 12.535156 -7.226562 12.640625 -7.90625 C 12.753906 -8.59375 12.757812 -9.34375 12.65625 -10.15625 C 12.539062 -10.957031 12.335938 -11.671875 12.046875 -12.296875 C 11.765625 -12.929688 11.40625 -13.457031 10.96875 -13.875 C 10.53125 -14.300781 10.019531 -14.601562 9.4375 -14.78125 C 8.863281 -14.957031 8.234375 -15 7.546875 -14.90625 C 6.847656 -14.8125 6.242188 -14.59375 5.734375 -14.25 C 5.234375 -13.914062 4.828125 -13.488281 4.515625 -12.96875 C 4.210938 -12.445312 4.003906 -11.84375 3.890625 -11.15625 C 3.785156 -10.476562 3.789062 -9.742188 3.90625 -8.953125 Z M 16.484375 -10.671875 C 16.671875 -9.253906 16.628906 -7.976562 16.359375 -6.84375 C 16.085938 -5.71875 15.632812 -4.742188 15 -3.921875 C 14.375 -3.109375 13.582031 -2.445312 12.625 -1.9375 C 11.664062 -1.4375 10.609375 -1.101562 9.453125 -0.9375 C 8.316406 -0.78125 7.222656 -0.816406 6.171875 -1.046875 C 5.128906 -1.285156 4.1875 -1.710938 3.34375 -2.328125 C 2.5 -2.953125 1.785156 -3.769531 1.203125 -4.78125 C 0.628906 -5.789062 0.25 -7.003906 0.0625 -8.421875 C -0.132812 -9.835938 -0.0859375 -11.109375 0.203125 -12.234375 C 0.503906 -13.367188 0.984375 -14.351562 1.640625 -15.1875 C 2.296875 -16.03125 3.09375 -16.695312 4.03125 -17.1875 C 4.96875 -17.6875 5.988281 -18.007812 7.09375 -18.15625 C 8.21875 -18.3125 9.304688 -18.273438 10.359375 -18.046875 C 11.410156 -17.828125 12.359375 -17.398438 13.203125 -16.765625 C 14.046875 -16.140625 14.753906 -15.320312 15.328125 -14.3125 C 15.898438 -13.300781 16.285156 -12.085938 16.484375 -10.671875 Z M 16.484375 -10.671875 " />
            </g>
        </g>
    </g>
    <g fill="#433b32" fill-opacity="1">
        <g transform="translate(183.16179, 103.768701)">
            <g>
                <path
                    d="M 6.515625 -2.75 C 7.035156 -2.738281 7.472656 -2.769531 7.828125 -2.84375 C 8.179688 -2.925781 8.460938 -3.039062 8.671875 -3.1875 C 8.878906 -3.34375 9.023438 -3.519531 9.109375 -3.71875 C 9.191406 -3.925781 9.234375 -4.160156 9.234375 -4.421875 C 9.242188 -4.960938 8.992188 -5.414062 8.484375 -5.78125 C 7.984375 -6.15625 7.113281 -6.5625 5.875 -7 C 5.332031 -7.207031 4.789062 -7.4375 4.25 -7.6875 C 3.707031 -7.945312 3.222656 -8.269531 2.796875 -8.65625 C 2.378906 -9.050781 2.035156 -9.519531 1.765625 -10.0625 C 1.503906 -10.601562 1.378906 -11.257812 1.390625 -12.03125 C 1.398438 -12.789062 1.554688 -13.476562 1.859375 -14.09375 C 2.160156 -14.707031 2.578125 -15.222656 3.109375 -15.640625 C 3.648438 -16.066406 4.300781 -16.382812 5.0625 -16.59375 C 5.820312 -16.8125 6.675781 -16.914062 7.625 -16.90625 C 8.738281 -16.882812 9.703125 -16.742188 10.515625 -16.484375 C 11.328125 -16.234375 11.992188 -15.960938 12.515625 -15.671875 L 11.390625 -12.71875 C 10.921875 -12.976562 10.40625 -13.203125 9.84375 -13.390625 C 9.28125 -13.585938 8.597656 -13.691406 7.796875 -13.703125 C 6.898438 -13.722656 6.25 -13.609375 5.84375 -13.359375 C 5.445312 -13.117188 5.242188 -12.742188 5.234375 -12.234375 C 5.234375 -11.929688 5.300781 -11.675781 5.4375 -11.46875 C 5.582031 -11.257812 5.785156 -11.066406 6.046875 -10.890625 C 6.304688 -10.710938 6.609375 -10.550781 6.953125 -10.40625 C 7.296875 -10.269531 7.675781 -10.125 8.09375 -9.96875 C 8.945312 -9.632812 9.691406 -9.304688 10.328125 -8.984375 C 10.960938 -8.660156 11.488281 -8.285156 11.90625 -7.859375 C 12.332031 -7.441406 12.644531 -6.945312 12.84375 -6.375 C 13.039062 -5.8125 13.128906 -5.128906 13.109375 -4.328125 C 13.085938 -2.773438 12.519531 -1.578125 11.40625 -0.734375 C 10.300781 0.0976562 8.65625 0.492188 6.46875 0.453125 C 5.726562 0.441406 5.0625 0.382812 4.46875 0.28125 C 3.875 0.1875 3.347656 0.0703125 2.890625 -0.0625 C 2.429688 -0.195312 2.039062 -0.34375 1.71875 -0.5 C 1.394531 -0.65625 1.125 -0.796875 0.90625 -0.921875 L 2.03125 -3.890625 C 2.507812 -3.609375 3.109375 -3.347656 3.828125 -3.109375 C 4.554688 -2.878906 5.453125 -2.757812 6.515625 -2.75 Z M 6.515625 -2.75 " />
            </g>
        </g>
    </g>
    <g fill="#433b32" fill-opacity="1">
        <g transform="translate(198.459045, 104.083546)">
            <g>
                <path
                    d="M 9.46875 -15.546875 C 11.925781 -15.160156 13.742188 -14.429688 14.921875 -13.359375 C 16.097656 -12.285156 16.53125 -10.769531 16.21875 -8.8125 C 15.90625 -6.832031 15.015625 -5.507812 13.546875 -4.84375 C 12.078125 -4.1875 10.109375 -4.050781 7.640625 -4.4375 L 6.46875 -4.625 L 5.59375 0.890625 L 1.890625 0.296875 L 4.46875 -15.90625 C 5.300781 -15.9375 6.171875 -15.910156 7.078125 -15.828125 C 7.992188 -15.753906 8.789062 -15.660156 9.46875 -15.546875 Z M 9.203125 -12.359375 C 8.941406 -12.398438 8.675781 -12.429688 8.40625 -12.453125 C 8.144531 -12.484375 7.914062 -12.503906 7.71875 -12.515625 L 6.96875 -7.765625 L 8.140625 -7.578125 C 9.421875 -7.378906 10.410156 -7.398438 11.109375 -7.640625 C 11.816406 -7.890625 12.242188 -8.488281 12.390625 -9.4375 C 12.460938 -9.894531 12.441406 -10.285156 12.328125 -10.609375 C 12.210938 -10.941406 12.015625 -11.222656 11.734375 -11.453125 C 11.460938 -11.679688 11.109375 -11.867188 10.671875 -12.015625 C 10.242188 -12.160156 9.753906 -12.273438 9.203125 -12.359375 Z M 9.203125 -12.359375 " />
            </g>
        </g>
    </g>
    <g fill="#433b32" fill-opacity="1">
        <g transform="translate(214.998756, 106.838771)">
            <g>
                <path
                    d="M 1.84375 0.5625 L 6.765625 -15.34375 L 17.5 -12.015625 L 16.5625 -9 L 9.40625 -11.21875 L 8.4375 -8.109375 L 14.796875 -6.140625 L 13.890625 -3.203125 L 7.53125 -5.171875 L 6.34375 -1.328125 L 14.03125 1.046875 L 13.109375 4.046875 Z M 1.84375 0.5625 " />
            </g>
        </g>
    </g>
    <g fill="#433b32" fill-opacity="1">
        <g transform="translate(230.124302, 111.552893)">
            <g>
                <path
                    d="M 13.375 -12.28125 C 15.632812 -11.207031 17.171875 -9.984375 17.984375 -8.609375 C 18.804688 -7.242188 18.8125 -5.71875 18 -4.03125 C 17.5 -2.96875 16.847656 -2.222656 16.046875 -1.796875 C 15.253906 -1.367188 14.316406 -1.179688 13.234375 -1.234375 C 13.359375 -0.710938 13.46875 -0.132812 13.5625 0.5 C 13.664062 1.144531 13.753906 1.804688 13.828125 2.484375 C 13.898438 3.171875 13.953125 3.875 13.984375 4.59375 C 14.015625 5.3125 14.035156 6.003906 14.046875 6.671875 L 10.25 4.875 C 10.195312 4.25 10.148438 3.617188 10.109375 2.984375 C 10.078125 2.347656 10.023438 1.71875 9.953125 1.09375 C 9.878906 0.476562 9.796875 -0.109375 9.703125 -0.671875 C 9.617188 -1.242188 9.515625 -1.769531 9.390625 -2.25 L 7.734375 -3.046875 L 5.125 2.4375 L 1.734375 0.828125 L 8.78125 -13.984375 C 9.59375 -13.796875 10.40625 -13.539062 11.21875 -13.21875 C 12.03125 -12.894531 12.75 -12.582031 13.375 -12.28125 Z M 12.1875 -9.3125 C 11.945312 -9.425781 11.722656 -9.523438 11.515625 -9.609375 C 11.316406 -9.691406 11.128906 -9.765625 10.953125 -9.828125 L 9.015625 -5.75 L 9.96875 -5.296875 C 11.238281 -4.691406 12.222656 -4.414062 12.921875 -4.46875 C 13.628906 -4.519531 14.164062 -4.929688 14.53125 -5.703125 C 14.882812 -6.441406 14.851562 -7.097656 14.4375 -7.671875 C 14.019531 -8.253906 13.269531 -8.800781 12.1875 -9.3125 Z M 12.1875 -9.3125 " />
            </g>
        </g>
    </g>
    <g fill="#423b32" fill-opacity="1">
        <g transform="translate(84.414842, 193.149479)">
            <g>
                <path
                    d="M 2.25 -3.015625 L 2.25 -1.140625 L 5.546875 -1.140625 L 5.546875 0 L 0.890625 0 L 0.890625 -6.875 L 5.46875 -6.875 L 5.46875 -5.75 L 2.25 -5.75 L 2.25 -4.140625 L 5.0625 -4.140625 L 5.0625 -3.015625 Z M 2.25 -3.015625 " />
            </g>
        </g>
    </g>
    <g fill="#423b32" fill-opacity="1">
        <g transform="translate(90.32839, 193.149479)">
            <g>
                <path
                    d="M 3.046875 0.09375 C 2.566406 0.09375 2.140625 0.0351562 1.765625 -0.078125 C 1.398438 -0.191406 1.09375 -0.34375 0.84375 -0.53125 C 0.59375 -0.726562 0.40625 -0.941406 0.28125 -1.171875 L 1.03125 -2.078125 L 1.140625 -2.078125 C 1.347656 -1.773438 1.609375 -1.53125 1.921875 -1.34375 C 2.242188 -1.164062 2.617188 -1.078125 3.046875 -1.078125 C 3.410156 -1.078125 3.6875 -1.15625 3.875 -1.3125 C 4.0625 -1.46875 4.15625 -1.675781 4.15625 -1.9375 C 4.15625 -2.101562 4.125 -2.238281 4.0625 -2.34375 C 4 -2.457031 3.898438 -2.550781 3.765625 -2.625 C 3.628906 -2.707031 3.441406 -2.78125 3.203125 -2.84375 L 2.328125 -3.046875 C 1.703125 -3.179688 1.238281 -3.410156 0.9375 -3.734375 C 0.632812 -4.066406 0.484375 -4.492188 0.484375 -5.015625 C 0.484375 -5.410156 0.578125 -5.753906 0.765625 -6.046875 C 0.960938 -6.335938 1.25 -6.566406 1.625 -6.734375 C 2 -6.898438 2.441406 -6.984375 2.953125 -6.984375 C 3.484375 -6.984375 3.9375 -6.910156 4.3125 -6.765625 C 4.695312 -6.628906 5.019531 -6.414062 5.28125 -6.125 L 4.609375 -5.203125 L 4.484375 -5.203125 C 4.296875 -5.410156 4.078125 -5.5625 3.828125 -5.65625 C 3.578125 -5.757812 3.285156 -5.8125 2.953125 -5.8125 C 2.585938 -5.8125 2.304688 -5.742188 2.109375 -5.609375 C 1.910156 -5.484375 1.8125 -5.304688 1.8125 -5.078125 C 1.8125 -4.859375 1.878906 -4.679688 2.015625 -4.546875 C 2.160156 -4.421875 2.398438 -4.320312 2.734375 -4.25 L 3.640625 -4.0625 C 4.304688 -3.925781 4.789062 -3.6875 5.09375 -3.34375 C 5.394531 -3.007812 5.546875 -2.570312 5.546875 -2.03125 C 5.546875 -1.601562 5.453125 -1.226562 5.265625 -0.90625 C 5.078125 -0.582031 4.796875 -0.332031 4.421875 -0.15625 C 4.046875 0.0078125 3.585938 0.09375 3.046875 0.09375 Z M 3.046875 0.09375 " />
            </g>
        </g>
    </g>
    <g fill="#423b32" fill-opacity="1">
        <g transform="translate(96.237229, 193.149479)">
            <g>
                <path
                    d="M 5.515625 -6.875 L 5.515625 -5.734375 L 3.53125 -5.734375 L 3.53125 0 L 2.171875 0 L 2.171875 -5.734375 L 0.1875 -5.734375 L 0.1875 -6.875 Z M 5.515625 -6.875 " />
            </g>
        </g>
    </g>
    <g fill="#423b32" fill-opacity="1">
        <g transform="translate(101.93907, 193.149479)">
            <g>
                <path
                    d="M 3.375 -6.875 C 4.488281 -6.875 5.335938 -6.585938 5.921875 -6.015625 C 6.515625 -5.441406 6.8125 -4.582031 6.8125 -3.4375 C 6.8125 -2.300781 6.515625 -1.441406 5.921875 -0.859375 C 5.335938 -0.285156 4.488281 0 3.375 0 L 0.890625 0 L 0.890625 -6.875 Z M 3.296875 -1.140625 C 4.003906 -1.140625 4.53125 -1.320312 4.875 -1.6875 C 5.226562 -2.050781 5.40625 -2.632812 5.40625 -3.4375 C 5.40625 -4.25 5.226562 -4.832031 4.875 -5.1875 C 4.53125 -5.550781 4.003906 -5.734375 3.296875 -5.734375 L 2.25 -5.734375 L 2.25 -1.140625 Z M 3.296875 -1.140625 " />
            </g>
        </g>
    </g>
    <g fill="#423b32" fill-opacity="1">
        <g transform="translate(266.04297, 192.426609)">
            <g>
                <path
                    d="M 0.328125 -0.546875 C 0.328125 -0.921875 0.367188 -1.238281 0.453125 -1.5 C 0.535156 -1.757812 0.671875 -2 0.859375 -2.21875 C 1.054688 -2.4375 1.328125 -2.664062 1.671875 -2.90625 L 2.578125 -3.578125 C 2.828125 -3.753906 3.019531 -3.90625 3.15625 -4.03125 C 3.300781 -4.164062 3.410156 -4.304688 3.484375 -4.453125 C 3.554688 -4.597656 3.59375 -4.765625 3.59375 -4.953125 C 3.59375 -5.234375 3.503906 -5.445312 3.328125 -5.59375 C 3.160156 -5.75 2.910156 -5.828125 2.578125 -5.828125 C 2.242188 -5.828125 1.953125 -5.75 1.703125 -5.59375 C 1.453125 -5.4375 1.242188 -5.222656 1.078125 -4.953125 L 0.984375 -4.9375 L 0.234375 -5.765625 C 0.484375 -6.128906 0.800781 -6.421875 1.1875 -6.640625 C 1.582031 -6.867188 2.0625 -6.984375 2.625 -6.984375 C 3.144531 -6.984375 3.578125 -6.894531 3.921875 -6.71875 C 4.265625 -6.550781 4.519531 -6.320312 4.6875 -6.03125 C 4.851562 -5.738281 4.9375 -5.398438 4.9375 -5.015625 C 4.9375 -4.691406 4.867188 -4.394531 4.734375 -4.125 C 4.597656 -3.851562 4.410156 -3.601562 4.171875 -3.375 C 3.929688 -3.144531 3.625 -2.898438 3.25 -2.640625 L 2.421875 -2.078125 C 2.179688 -1.898438 2.007812 -1.738281 1.90625 -1.59375 C 1.8125 -1.457031 1.765625 -1.304688 1.765625 -1.140625 L 4.875 -1.140625 L 4.875 0 L 0.328125 0 Z M 0.328125 -0.546875 " />
            </g>
        </g>
    </g>
    <g fill="#423b32" fill-opacity="1">
        <g transform="translate(271.410798, 192.426609)">
            <g>
                <path
                    d="M 3.359375 0.09375 C 2.796875 0.09375 2.304688 -0.03125 1.890625 -0.28125 C 1.472656 -0.53125 1.148438 -0.914062 0.921875 -1.4375 C 0.691406 -1.96875 0.578125 -2.632812 0.578125 -3.4375 C 0.578125 -4.25 0.691406 -4.914062 0.921875 -5.4375 C 1.148438 -5.96875 1.472656 -6.359375 1.890625 -6.609375 C 2.304688 -6.859375 2.796875 -6.984375 3.359375 -6.984375 C 3.921875 -6.984375 4.410156 -6.859375 4.828125 -6.609375 C 5.242188 -6.359375 5.566406 -5.96875 5.796875 -5.4375 C 6.023438 -4.914062 6.140625 -4.25 6.140625 -3.4375 C 6.140625 -2.632812 6.023438 -1.96875 5.796875 -1.4375 C 5.566406 -0.914062 5.242188 -0.53125 4.828125 -0.28125 C 4.410156 -0.03125 3.921875 0.09375 3.359375 0.09375 Z M 3.359375 -1.046875 C 3.671875 -1.046875 3.925781 -1.117188 4.125 -1.265625 C 4.332031 -1.421875 4.492188 -1.675781 4.609375 -2.03125 C 4.722656 -2.382812 4.78125 -2.851562 4.78125 -3.4375 C 4.78125 -4.03125 4.722656 -4.5 4.609375 -4.84375 C 4.492188 -5.195312 4.332031 -5.445312 4.125 -5.59375 C 3.925781 -5.75 3.671875 -5.828125 3.359375 -5.828125 C 3.054688 -5.828125 2.800781 -5.75 2.59375 -5.59375 C 2.382812 -5.445312 2.222656 -5.195312 2.109375 -4.84375 C 1.992188 -4.5 1.9375 -4.03125 1.9375 -3.4375 C 1.9375 -2.851562 1.992188 -2.382812 2.109375 -2.03125 C 2.222656 -1.675781 2.382812 -1.421875 2.59375 -1.265625 C 2.800781 -1.117188 3.054688 -1.046875 3.359375 -1.046875 Z M 3.359375 -1.046875 " />
            </g>
        </g>
    </g>
    <g fill="#423b32" fill-opacity="1">
        <g transform="translate(278.133518, 192.426609)">
            <g>
                <path
                    d="M 0.328125 -0.546875 C 0.328125 -0.921875 0.367188 -1.238281 0.453125 -1.5 C 0.535156 -1.757812 0.671875 -2 0.859375 -2.21875 C 1.054688 -2.4375 1.328125 -2.664062 1.671875 -2.90625 L 2.578125 -3.578125 C 2.828125 -3.753906 3.019531 -3.90625 3.15625 -4.03125 C 3.300781 -4.164062 3.410156 -4.304688 3.484375 -4.453125 C 3.554688 -4.597656 3.59375 -4.765625 3.59375 -4.953125 C 3.59375 -5.234375 3.503906 -5.445312 3.328125 -5.59375 C 3.160156 -5.75 2.910156 -5.828125 2.578125 -5.828125 C 2.242188 -5.828125 1.953125 -5.75 1.703125 -5.59375 C 1.453125 -5.4375 1.242188 -5.222656 1.078125 -4.953125 L 0.984375 -4.9375 L 0.234375 -5.765625 C 0.484375 -6.128906 0.800781 -6.421875 1.1875 -6.640625 C 1.582031 -6.867188 2.0625 -6.984375 2.625 -6.984375 C 3.144531 -6.984375 3.578125 -6.894531 3.921875 -6.71875 C 4.265625 -6.550781 4.519531 -6.320312 4.6875 -6.03125 C 4.851562 -5.738281 4.9375 -5.398438 4.9375 -5.015625 C 4.9375 -4.691406 4.867188 -4.394531 4.734375 -4.125 C 4.597656 -3.851562 4.410156 -3.601562 4.171875 -3.375 C 3.929688 -3.144531 3.625 -2.898438 3.25 -2.640625 L 2.421875 -2.078125 C 2.179688 -1.898438 2.007812 -1.738281 1.90625 -1.59375 C 1.8125 -1.457031 1.765625 -1.304688 1.765625 -1.140625 L 4.875 -1.140625 L 4.875 0 L 0.328125 0 Z M 0.328125 -0.546875 " />
            </g>
        </g>
    </g>
    <g fill="#423b32" fill-opacity="1">
        <g transform="translate(283.501346, 192.426609)">
            <g>
                <path
                    d="M 4.671875 0 L 3.375 0 L 3.375 -1.5 L 0.234375 -1.5 L 0.234375 -2.59375 L 2.9375 -6.875 L 4.671875 -6.875 L 4.671875 -2.59375 L 5.734375 -2.59375 L 5.734375 -1.5 L 4.671875 -1.5 Z M 1.625 -2.6875 L 1.671875 -2.59375 L 3.375 -2.59375 L 3.375 -5.265625 L 3.265625 -5.28125 Z M 1.625 -2.6875 " />
            </g>
        </g>
    </g>
    <g fill="#433b32" fill-opacity="1">
        <g transform="translate(112.357648, 250.575452)">
            <g>
                <path
                    d="M 0.953125 1.078125 L 10.34375 -7.15625 L 15.90625 -0.8125 L 14.125 0.75 L 10.40625 -3.46875 L 8.5625 -1.859375 L 11.859375 1.875 L 10.140625 3.390625 L 6.84375 -0.34375 L 4.578125 1.640625 L 8.5625 6.171875 L 6.78125 7.734375 Z M 0.953125 1.078125 " />
            </g>
        </g>
    </g>
    <g fill="#433b32" fill-opacity="1">
        <g transform="translate(125.712393, 264.617365)">
            <g>
                <path
                    d="M 4.78125 0.703125 C 4.875 0.773438 4.988281 0.863281 5.125 0.96875 C 5.269531 1.082031 5.4375 1.210938 5.625 1.359375 C 6.757812 2.191406 7.804688 2.523438 8.765625 2.359375 C 9.722656 2.191406 10.578125 1.601562 11.328125 0.59375 C 12.097656 -0.457031 12.425781 -1.445312 12.3125 -2.375 C 12.195312 -3.300781 11.570312 -4.179688 10.4375 -5.015625 C 10.289062 -5.128906 10.128906 -5.242188 9.953125 -5.359375 C 9.785156 -5.472656 9.625 -5.570312 9.46875 -5.65625 Z M 13.671875 2.328125 C 13.023438 3.203125 12.328125 3.863281 11.578125 4.3125 C 10.835938 4.757812 10.0625 5.007812 9.25 5.0625 C 8.4375 5.125 7.59375 4.992188 6.71875 4.671875 C 5.84375 4.347656 4.960938 3.859375 4.078125 3.203125 C 3.671875 2.910156 3.210938 2.546875 2.703125 2.109375 C 2.191406 1.679688 1.707031 1.222656 1.25 0.734375 L 8.484375 -9.0625 C 9.078125 -8.769531 9.664062 -8.429688 10.25 -8.046875 C 10.832031 -7.660156 11.332031 -7.316406 11.75 -7.015625 C 12.601562 -6.390625 13.3125 -5.71875 13.875 -5 C 14.4375 -4.289062 14.816406 -3.539062 15.015625 -2.75 C 15.210938 -1.957031 15.203125 -1.140625 14.984375 -0.296875 C 14.773438 0.546875 14.335938 1.421875 13.671875 2.328125 Z M 13.671875 2.328125 " />
            </g>
        </g>
    </g>
    <g fill="#433b32" fill-opacity="1">
        <g transform="translate(143.80771, 276.752291)">
            <g>
                <path
                    d="M 5.703125 2.765625 C 4.898438 2.410156 4.25 1.992188 3.75 1.515625 C 3.257812 1.035156 2.914062 0.515625 2.71875 -0.046875 C 2.519531 -0.609375 2.453125 -1.210938 2.515625 -1.859375 C 2.578125 -2.503906 2.753906 -3.160156 3.046875 -3.828125 L 6.140625 -10.9375 L 8.71875 -9.8125 L 5.71875 -2.921875 C 5.519531 -2.460938 5.394531 -2.046875 5.34375 -1.671875 C 5.300781 -1.296875 5.328125 -0.96875 5.421875 -0.6875 C 5.523438 -0.40625 5.6875 -0.164062 5.90625 0.03125 C 6.132812 0.238281 6.398438 0.410156 6.703125 0.546875 C 7.335938 0.816406 7.929688 0.84375 8.484375 0.625 C 9.046875 0.414062 9.53125 -0.148438 9.9375 -1.078125 L 12.9375 -7.96875 L 15.5 -6.859375 L 12.40625 0.25 C 12.113281 0.914062 11.75 1.492188 11.3125 1.984375 C 10.882812 2.472656 10.390625 2.832031 9.828125 3.0625 C 9.273438 3.300781 8.648438 3.398438 7.953125 3.359375 C 7.265625 3.316406 6.515625 3.117188 5.703125 2.765625 Z M 5.703125 2.765625 " />
            </g>
        </g>
    </g>
    <g fill="#433b32" fill-opacity="1">
        <g transform="translate(163.600574, 284.322183)">
            <g>
                <path
                    d="M 6.953125 1.640625 C 4.960938 1.242188 3.554688 0.390625 2.734375 -0.921875 C 1.910156 -2.242188 1.703125 -3.921875 2.109375 -5.953125 C 2.304688 -6.972656 2.640625 -7.847656 3.109375 -8.578125 C 3.585938 -9.316406 4.15625 -9.90625 4.8125 -10.34375 C 5.476562 -10.78125 6.21875 -11.0625 7.03125 -11.1875 C 7.851562 -11.3125 8.710938 -11.285156 9.609375 -11.109375 C 10.128906 -11.003906 10.597656 -10.875 11.015625 -10.71875 C 11.429688 -10.5625 11.785156 -10.398438 12.078125 -10.234375 C 12.367188 -10.078125 12.609375 -9.925781 12.796875 -9.78125 C 12.992188 -9.632812 13.132812 -9.519531 13.21875 -9.4375 L 11.96875 -7.359375 C 11.632812 -7.640625 11.234375 -7.894531 10.765625 -8.125 C 10.296875 -8.363281 9.742188 -8.546875 9.109375 -8.671875 C 8.679688 -8.753906 8.25 -8.769531 7.8125 -8.71875 C 7.375 -8.664062 6.96875 -8.515625 6.59375 -8.265625 C 6.226562 -8.015625 5.898438 -7.660156 5.609375 -7.203125 C 5.316406 -6.742188 5.097656 -6.160156 4.953125 -5.453125 C 4.835938 -4.878906 4.796875 -4.335938 4.828125 -3.828125 C 4.867188 -3.316406 4.988281 -2.851562 5.1875 -2.4375 C 5.394531 -2.03125 5.703125 -1.675781 6.109375 -1.375 C 6.515625 -1.082031 7.039062 -0.875 7.6875 -0.75 C 8.082031 -0.675781 8.441406 -0.628906 8.765625 -0.609375 C 9.085938 -0.597656 9.378906 -0.597656 9.640625 -0.609375 C 9.910156 -0.628906 10.144531 -0.660156 10.34375 -0.703125 C 10.550781 -0.753906 10.738281 -0.796875 10.90625 -0.828125 L 11.234375 1.515625 C 10.796875 1.671875 10.207031 1.773438 9.46875 1.828125 C 8.726562 1.878906 7.890625 1.816406 6.953125 1.640625 Z M 6.953125 1.640625 " />
            </g>
        </g>
    </g>
    <g fill="#433b32" fill-opacity="1">
        <g transform="translate(183.512317, 287.390606)">
            <g>
                <path
                    d="M 9.796875 -0.21875 C 9.660156 -0.65625 9.503906 -1.097656 9.328125 -1.546875 C 9.148438 -1.992188 8.976562 -2.445312 8.8125 -2.90625 L 3.953125 -2.796875 C 3.804688 -2.328125 3.65625 -1.863281 3.5 -1.40625 C 3.351562 -0.957031 3.21875 -0.507812 3.09375 -0.0625 L 0.1875 0 C 0.613281 -1.351562 1.023438 -2.601562 1.421875 -3.75 C 1.816406 -4.90625 2.203125 -5.992188 2.578125 -7.015625 C 2.960938 -8.035156 3.335938 -9 3.703125 -9.90625 C 4.078125 -10.820312 4.46875 -11.71875 4.875 -12.59375 L 7.5625 -12.65625 C 7.988281 -11.800781 8.410156 -10.925781 8.828125 -10.03125 C 9.242188 -9.132812 9.660156 -8.179688 10.078125 -7.171875 C 10.503906 -6.171875 10.941406 -5.101562 11.390625 -3.96875 C 11.835938 -2.84375 12.3125 -1.613281 12.8125 -0.28125 Z M 6.21875 -9.796875 C 6.164062 -9.617188 6.082031 -9.375 5.96875 -9.0625 C 5.851562 -8.75 5.722656 -8.382812 5.578125 -7.96875 C 5.429688 -7.550781 5.269531 -7.09375 5.09375 -6.59375 C 4.914062 -6.101562 4.738281 -5.585938 4.5625 -5.046875 L 8.109375 -5.125 C 7.898438 -5.65625 7.703125 -6.164062 7.515625 -6.65625 C 7.328125 -7.144531 7.144531 -7.59375 6.96875 -8 C 6.800781 -8.40625 6.65625 -8.757812 6.53125 -9.0625 C 6.40625 -9.375 6.300781 -9.617188 6.21875 -9.796875 Z M 6.21875 -9.796875 " />
            </g>
        </g>
    </g>
    <g fill="#433b32" fill-opacity="1">
        <g transform="translate(204.888723, 285.906704)">
            <g>
                <path
                    d="M 7.484375 -14.640625 L 8.046875 -12.3125 L 4.390625 -11.4375 L 6.75 -1.625 L 4.015625 -0.96875 L 1.65625 -10.78125 L -2.015625 -9.890625 L -2.578125 -12.21875 Z M 7.484375 -14.640625 " />
            </g>
        </g>
    </g>
    <g fill="#433b32" fill-opacity="1">
        <g transform="translate(223.364509, 280.487654)">
            <g>
                <path
                    d="M -3.65625 -12.03125 L -1.078125 -13.140625 L 3.890625 -1.6875 L 1.3125 -0.578125 Z M -3.65625 -12.03125 " />
            </g>
        </g>
    </g>
    <g fill="#433b32" fill-opacity="1">
        <g transform="translate(236.075824, 274.544008)">
            <g>
                <path
                    d="M -0.40625 -7.296875 C -0.0625 -6.785156 0.304688 -6.375 0.703125 -6.0625 C 1.109375 -5.75 1.53125 -5.523438 1.96875 -5.390625 C 2.40625 -5.253906 2.847656 -5.222656 3.296875 -5.296875 C 3.742188 -5.367188 4.179688 -5.550781 4.609375 -5.84375 C 5.046875 -6.132812 5.378906 -6.476562 5.609375 -6.875 C 5.847656 -7.28125 5.976562 -7.707031 6 -8.15625 C 6.03125 -8.601562 5.96875 -9.070312 5.8125 -9.5625 C 5.664062 -10.050781 5.421875 -10.550781 5.078125 -11.0625 C 4.734375 -11.570312 4.351562 -11.988281 3.9375 -12.3125 C 3.53125 -12.632812 3.113281 -12.863281 2.6875 -13 C 2.257812 -13.132812 1.816406 -13.160156 1.359375 -13.078125 C 0.910156 -12.992188 0.46875 -12.804688 0.03125 -12.515625 C -0.394531 -12.222656 -0.71875 -11.875 -0.9375 -11.46875 C -1.164062 -11.070312 -1.296875 -10.648438 -1.328125 -10.203125 C -1.367188 -9.753906 -1.3125 -9.28125 -1.15625 -8.78125 C -1 -8.289062 -0.75 -7.796875 -0.40625 -7.296875 Z M 7.46875 -12.6875 C 8.070312 -11.800781 8.46875 -10.9375 8.65625 -10.09375 C 8.851562 -9.25 8.878906 -8.445312 8.734375 -7.6875 C 8.585938 -6.925781 8.273438 -6.210938 7.796875 -5.546875 C 7.328125 -4.890625 6.726562 -4.3125 6 -3.8125 C 5.3125 -3.332031 4.570312 -2.992188 3.78125 -2.796875 C 3 -2.597656 2.222656 -2.5625 1.453125 -2.6875 C 0.679688 -2.820312 -0.0625 -3.128906 -0.78125 -3.609375 C -1.507812 -4.097656 -2.175781 -4.785156 -2.78125 -5.671875 C -3.382812 -6.554688 -3.773438 -7.425781 -3.953125 -8.28125 C -4.140625 -9.132812 -4.15625 -9.945312 -4 -10.71875 C -3.84375 -11.5 -3.53125 -12.21875 -3.0625 -12.875 C -2.601562 -13.53125 -2.035156 -14.085938 -1.359375 -14.546875 C -0.648438 -15.035156 0.09375 -15.378906 0.875 -15.578125 C 1.65625 -15.773438 2.429688 -15.804688 3.203125 -15.671875 C 3.984375 -15.535156 4.738281 -15.222656 5.46875 -14.734375 C 6.195312 -14.253906 6.863281 -13.570312 7.46875 -12.6875 Z M 7.46875 -12.6875 " />
            </g>
        </g>
    </g>
    <g fill="#433b32" fill-opacity="1">
        <g transform="translate(254.275941, 260.804929)">
            <g>
                <path
                    d="M 6.578125 -7.28125 C 4.972656 -7.644531 3.34375 -7.945312 1.6875 -8.1875 C 0.03125 -8.425781 -1.609375 -8.566406 -3.234375 -8.609375 L 2.828125 -3.125 L 0.96875 -1.0625 L -8.296875 -9.4375 L -6.765625 -11.140625 C -6.203125 -11.171875 -5.546875 -11.171875 -4.796875 -11.140625 C -4.046875 -11.109375 -3.257812 -11.054688 -2.4375 -10.984375 C -1.625 -10.921875 -0.789062 -10.832031 0.0625 -10.71875 C 0.914062 -10.613281 1.726562 -10.503906 2.5 -10.390625 L -2.96875 -15.34375 L -1.109375 -17.40625 L 8.15625 -9.03125 Z M 6.578125 -7.28125 " />
            </g>
        </g>
    </g>
</svg>